<svg version="1.1" id="Layer_1" xmlns="http://www.w3.org/2000/svg" xmlns:xlink="http://www.w3.org/1999/xlink" x="0px" y="0px"
	 width="100%" viewBox="0 0 474 524" enable-background="new 0 0 474 524" xml:space="preserve">
<path fill="#000000" opacity="1.000000" stroke="none" 
	d="
M239.000000,525.000000 
	C159.333359,525.000000 80.166702,525.000000 1.000042,525.000000 
	C1.000028,350.333405 1.000028,175.666794 1.000014,1.000136 
	C158.999893,1.000091 316.999786,1.000091 474.999756,1.000045 
	C474.999847,175.666519 474.999847,350.333038 474.999939,524.999756 
	C396.500000,525.000000 318.000000,525.000000 239.000000,525.000000 
M285.987671,126.135429 
	C285.936218,124.090149 285.884766,122.044868 285.986267,119.384720 
	C285.694977,118.908333 285.403656,118.431946 285.004608,117.228249 
	C283.683807,116.447243 282.363007,115.666245 280.603851,114.129143 
	C262.657837,114.086159 244.711624,113.986916 226.765976,114.048996 
	C223.296036,114.060997 220.192169,115.316345 219.924652,119.486221 
	C219.515732,125.860001 219.160858,132.247864 219.206070,138.626755 
	C219.211746,139.427078 221.777451,140.887100 223.165756,140.897720 
	C242.775330,141.047836 262.386658,141.037354 281.996582,140.914154 
	C283.279480,140.906097 284.554626,139.667130 285.987823,138.090302 
	C285.936279,134.393616 285.884735,130.696945 285.987671,126.135429 
M248.920975,89.986893 
	C253.485718,89.986893 258.050446,89.986893 262.615173,89.986893 
	C257.494598,87.959152 252.458359,85.512604 246.253891,88.226044 
	C246.836273,88.761154 247.418640,89.296265 248.920975,89.986893 
M73.180252,194.992477 
	C70.151596,197.840561 67.017296,200.585587 64.117050,203.558929 
	C58.683502,209.129410 53.312157,214.765533 48.083420,220.527267 
	C46.799023,221.942581 45.339588,223.987305 45.421379,225.671722 
	C45.547943,228.278244 46.983662,230.807724 47.772900,233.397705 
	C54.423351,255.222198 66.003380,274.819611 75.717636,295.259033 
	C76.050529,295.959473 76.678635,296.519592 77.833130,297.991852 
	C77.833130,294.571747 77.833130,292.286316 77.988655,289.074860 
	C77.936234,259.716217 77.883812,230.357574 77.985268,200.335464 
	C77.934540,199.887192 77.883812,199.438934 77.932419,198.452728 
	C77.633377,198.265610 77.334328,198.078506 77.015999,197.458801 
	C77.015999,197.458801 77.102242,197.034454 77.760498,196.756699 
	C77.545792,195.491135 77.331085,194.225555 77.297096,192.171524 
	C77.705215,191.161926 78.113335,190.152313 78.665703,188.785858 
	C115.940376,188.785858 153.360672,188.785858 191.000000,188.785858 
	C191.000000,164.456253 191.027924,140.482605 190.988770,116.509064 
	C190.967712,103.618446 198.556519,94.412064 210.840363,92.170197 
	C219.330856,90.620659 228.107300,90.582596 236.766769,90.042305 
	C240.107620,89.833870 242.630051,88.779655 244.677673,85.262077 
	C206.326706,78.187675 170.585190,65.843925 136.158035,47.627499 
	C135.064026,53.071671 134.294083,58.275501 132.950867,63.326893 
	C129.117905,77.741463 126.093254,92.490875 120.805885,106.367569 
	C114.608604,122.632347 106.878059,138.384995 98.824944,153.845337 
	C93.420319,164.221085 86.246140,173.669205 79.976143,183.603348 
	C77.861893,186.953140 76.093353,190.521133 74.009193,194.425217 
	C74.009193,194.425217 73.957703,194.885788 73.180252,194.992477 
M406.940948,381.483368 
	C407.571716,379.988770 408.202484,378.494202 409.127625,376.338135 
	C411.586731,373.269653 410.955750,371.781921 406.923553,371.995087 
	C405.283783,372.081757 403.641022,372.111206 401.073730,372.011871 
	C394.076385,372.007904 387.066803,372.260223 380.085114,371.927460 
	C373.173340,371.597961 366.533234,367.668823 366.876984,358.627838 
	C367.361908,345.873260 366.999756,333.086456 366.999756,320.000000 
	C347.902588,320.000000 329.275513,320.171265 310.655487,319.884796 
	C305.733734,319.809052 304.878448,321.925110 304.952789,326.015717 
	C305.073486,332.658813 305.850311,333.969513 310.710083,333.990387 
	C318.873627,334.025452 327.067902,333.555328 335.193542,334.111359 
	C345.541901,334.819550 352.812531,337.586487 352.018311,350.760345 
	C351.888214,352.918396 351.775879,355.118713 352.039490,357.252014 
	C353.081055,365.680817 346.411957,372.230194 337.335419,372.068939 
	C322.845245,371.811432 308.346375,371.933594 293.853394,372.093323 
	C292.226654,372.111267 289.812347,372.957458 289.119843,374.184875 
	C282.783264,385.416595 273.551514,393.707031 263.014740,400.725281 
	C265.518829,407.186737 267.777222,413.690704 270.529846,419.978271 
	C276.563293,433.759888 282.961334,447.382385 288.947845,461.183777 
	C290.426208,464.591949 292.641022,465.664978 295.823822,464.941254 
	C315.077423,460.563263 333.032410,452.913879 349.809235,442.610626 
	C364.125397,433.818573 376.972443,423.097748 387.405762,409.908081 
	C393.873535,401.731567 399.250519,392.692200 405.635559,383.890106 
	C405.860870,383.230286 406.086182,382.570496 406.940948,381.483368 
M363.779175,268.737518 
	C365.130524,265.491394 366.481873,262.245300 368.128815,258.336670 
	C369.906006,254.244522 371.566193,250.096695 373.482635,246.070847 
	C378.939819,234.606766 384.287689,223.082138 390.105835,211.801697 
	C393.353363,205.505280 393.843933,199.958206 390.094177,193.551025 
	C385.240387,185.257492 381.344482,176.405914 376.977020,167.824722 
	C365.749664,145.765228 354.390472,123.771996 343.306091,101.641045 
	C340.179840,95.399254 336.425781,91.551010 328.706390,92.865631 
	C324.335083,93.610062 319.733154,93.000000 315.235077,93.000000 
	C310.527466,93.000000 305.819855,93.000000 301.112244,93.000000 
	C302.540771,95.160439 304.347198,96.064163 305.814331,97.353851 
	C311.226624,102.111511 313.921021,108.245354 313.967285,115.387772 
	C314.071655,131.489578 314.000061,147.592529 314.000061,164.000000 
	C311.894989,164.000000 310.259033,164.000000 308.623108,164.000000 
	C280.801758,164.000000 252.979065,164.141190 225.160278,163.874588 
	C219.928802,163.824463 218.352936,165.453445 218.931763,170.397079 
	C219.297363,173.519562 218.712723,176.751343 219.057205,179.878693 
	C219.887100,187.412476 220.887436,190.108582 229.356949,190.058289 
	C256.005066,189.900024 282.654663,190.000000 309.466064,190.000000 
	C324.363434,222.355850 339.237854,254.661835 354.575592,287.974121 
	C357.735657,280.967834 360.424988,275.005157 363.779175,268.737518 
M119.000000,256.500000 
	C119.000000,298.252289 119.000000,340.004608 119.000000,382.000000 
	C125.185547,382.000000 130.825821,382.060455 136.464432,381.989532 
	C161.035660,381.680481 185.642578,382.016022 210.162369,380.717346 
	C222.784973,380.048767 234.438034,374.822693 243.925293,365.656006 
	C254.409286,355.526154 258.272095,342.666931 258.858673,328.817535 
	C259.485565,314.015747 258.867065,299.165222 259.046356,284.339050 
	C259.167694,274.304047 257.724945,264.727722 254.186508,255.220673 
	C250.333771,244.869110 243.192078,237.547455 234.252731,232.212234 
	C222.463791,225.176315 208.889969,223.440491 195.472687,223.148468 
	C171.325607,222.622925 147.158859,222.996246 123.000343,223.010529 
	C121.730843,223.011292 120.461449,223.165024 119.000000,223.260010 
	C119.000000,234.216919 119.000000,244.858459 119.000000,256.500000 
M164.014359,434.522858 
	C190.806122,453.976898 220.084534,466.458069 254.078217,467.186493 
	C246.370621,448.746918 238.937698,430.964447 231.325165,412.752258 
	C202.960251,418.238861 174.127350,416.794189 144.896881,418.144897 
	C151.098236,423.430115 157.299591,428.715363 164.014359,434.522858 
M423.997803,277.742432 
	C422.332153,271.206360 420.860626,264.612793 418.946136,258.150421 
	C417.038269,251.710114 414.718872,245.389893 412.486725,239.049820 
	C412.211945,238.269287 411.461548,237.513580 410.730896,237.106873 
	C410.441437,236.945786 409.349792,237.630386 409.059937,238.166122 
	C407.618042,240.831436 406.248627,243.542007 404.986755,246.297592 
	C399.917236,257.368103 394.997620,268.508362 389.827606,279.531372 
	C385.394318,288.983704 380.695282,298.311401 376.237152,307.441559 
	C392.831757,307.225311 409.319427,305.553314 426.668091,308.952759 
	C425.751251,298.537750 424.875549,288.589905 423.997803,277.742432 
M282.863068,214.001389 
	C280.623322,214.155777 278.383606,214.310165 275.266388,214.525055 
	C278.684265,218.064178 282.232422,220.871735 284.686676,224.433136 
	C294.082275,238.067169 297.969421,253.665512 298.861908,269.893982 
	C299.553314,282.466034 299.000000,295.106567 299.000000,307.265076 
	C310.218262,307.265076 321.006989,307.265076 332.411652,307.265076 
	C331.048737,304.110535 330.109589,301.762726 329.035858,299.478210 
	C316.348419,272.483948 303.630188,245.504196 290.952972,218.505188 
	C289.485535,215.379883 287.777710,212.863235 282.863068,214.001389 
M296.038147,353.709412 
	C295.669464,356.023468 295.300812,358.337524 294.876709,360.999542 
	C307.758087,360.999542 320.074982,361.129944 332.383179,360.861481 
	C334.268951,360.820343 337.665863,358.983978 337.697479,357.900085 
	C337.806610,354.159668 336.792236,350.373016 336.020721,346.642212 
	C335.948059,346.290771 334.575500,346.030121 333.805481,346.027618 
	C322.074707,345.989227 310.343781,346.000916 298.053406,346.000916 
	C297.676056,347.723297 297.099670,350.353943 296.038147,353.709412 
M405.463715,361.000000 
	C407.955322,360.999939 410.457275,361.132019 412.933807,360.938904 
	C414.019043,360.854279 415.704742,360.364288 416.001617,359.615723 
	C417.692413,355.352386 419.046326,350.955444 420.624023,346.280243 
	C406.943939,346.280243 394.081635,346.280243 381.000488,346.280243 
	C381.000488,349.690491 381.070374,352.827026 380.981964,355.959106 
	C380.882080,359.497528 382.491699,361.073334 386.035004,361.023804 
	C392.179810,360.937866 398.326630,360.999969 405.463715,361.000000 
M416.051483,320.599152 
	C415.356384,320.211761 414.657440,319.480865 413.966797,319.488617 
	C403.804108,319.602905 393.639740,319.743469 383.485657,320.133881 
	C382.621704,320.167053 381.205414,321.969513 381.115082,323.040253 
	C380.814362,326.604950 381.001312,330.210846 381.001312,333.756836 
	C393.283020,333.756836 404.994171,333.756836 416.722748,333.756836 
	C416.722748,329.408630 416.722748,325.303131 416.051483,320.599152 
z"/>
<path fill="#FFFFFF" opacity="1.000000" stroke="none" 
	d="
M119.000000,256.000000 
	C119.000000,244.858459 119.000000,234.216919 119.000000,223.260010 
	C120.461449,223.165024 121.730843,223.011292 123.000343,223.010529 
	C147.158859,222.996246 171.325607,222.622925 195.472687,223.148468 
	C208.889969,223.440491 222.463791,225.176315 234.252731,232.212234 
	C243.192078,237.547455 250.333771,244.869110 254.186508,255.220673 
	C257.724945,264.727722 259.167694,274.304047 259.046356,284.339050 
	C258.867065,299.165222 259.485565,314.015747 258.858673,328.817535 
	C258.272095,342.666931 254.409286,355.526154 243.925293,365.656006 
	C234.438034,374.822693 222.784973,380.048767 210.162369,380.717346 
	C185.642578,382.016022 161.035660,381.680481 136.464432,381.989532 
	C130.825821,382.060455 125.185547,382.000000 119.000000,382.000000 
	C119.000000,340.004608 119.000000,298.252289 119.000000,256.000000 
z"/>
<path fill="#FFFFFF" opacity="1.000000" stroke="none" 
	d="
M363.114380,269.042480 
	C360.424988,275.005157 357.735657,280.967834 354.575592,287.974121 
	C339.237854,254.661835 324.363434,222.355850 309.466064,190.000000 
	C282.654663,190.000000 256.005066,189.900024 229.356949,190.058289 
	C220.887436,190.108582 219.887100,187.412476 219.057205,179.878693 
	C218.712723,176.751343 219.297363,173.519562 218.931763,170.397079 
	C218.352936,165.453445 219.928802,163.824463 225.160278,163.874588 
	C252.979065,164.141190 280.801758,164.000000 308.623108,164.000000 
	C310.259033,164.000000 311.894989,164.000000 314.000061,164.000000 
	C314.000061,147.592529 314.071655,131.489578 313.967285,115.387772 
	C313.921021,108.245354 311.226624,102.111511 305.814331,97.353851 
	C304.347198,96.064163 302.540771,95.160439 301.112244,93.000000 
	C305.819855,93.000000 310.527466,93.000000 315.235077,93.000000 
	C319.733154,93.000000 324.335083,93.610062 328.706390,92.865631 
	C336.425781,91.551010 340.179840,95.399254 343.306091,101.641045 
	C354.390472,123.771996 365.749664,145.765228 376.977020,167.824722 
	C381.344482,176.405914 385.240387,185.257492 390.094177,193.551025 
	C393.843933,199.958206 393.353363,205.505280 390.105835,211.801697 
	C384.287689,223.082138 378.939819,234.606766 373.482635,246.070847 
	C371.566193,250.096695 369.906006,254.244522 367.617371,258.618713 
	C364.906219,258.290375 362.706573,257.680023 361.070190,257.225952 
	C361.070190,260.453491 360.853577,263.014832 361.161987,265.511292 
	C361.315033,266.749847 362.432983,267.869202 363.114380,269.042480 
z"/>
<path fill="#FFFFFF" opacity="1.000000" stroke="none" 
	d="
M74.166809,193.989395 
	C76.093353,190.521133 77.861893,186.953140 79.976143,183.603348 
	C86.246140,173.669205 93.420319,164.221085 98.824944,153.845337 
	C106.878059,138.384995 114.608604,122.632347 120.805885,106.367569 
	C126.093254,92.490875 129.117905,77.741463 132.950867,63.326893 
	C134.294083,58.275501 135.064026,53.071671 136.158035,47.627499 
	C170.585190,65.843925 206.326706,78.187675 244.677673,85.262077 
	C242.630051,88.779655 240.107620,89.833870 236.766769,90.042305 
	C228.107300,90.582596 219.330856,90.620659 210.840363,92.170197 
	C198.556519,94.412064 190.967712,103.618446 190.988770,116.509064 
	C191.027924,140.482605 191.000000,164.456253 191.000000,188.785858 
	C153.360672,188.785858 115.940376,188.785858 78.665703,188.785858 
	C78.113335,190.152313 77.705215,191.161926 76.927734,192.578308 
	C76.372246,192.990051 76.186119,192.995026 75.757301,193.096313 
	C75.065338,193.458221 74.616066,193.723816 74.166809,193.989395 
z"/>
<path fill="#FFFFFF" opacity="1.000000" stroke="none" 
	d="
M405.117096,384.040131 
	C399.250519,392.692200 393.873535,401.731567 387.405762,409.908081 
	C376.972443,423.097748 364.125397,433.818573 349.809235,442.610626 
	C333.032410,452.913879 315.077423,460.563263 295.823822,464.941254 
	C292.641022,465.664978 290.426208,464.591949 288.947845,461.183777 
	C282.961334,447.382385 276.563293,433.759888 270.529846,419.978271 
	C267.777222,413.690704 265.518829,407.186737 263.014740,400.725281 
	C273.551514,393.707031 282.783264,385.416595 289.119843,374.184875 
	C289.812347,372.957458 292.226654,372.111267 293.853394,372.093323 
	C308.346375,371.933594 322.845245,371.811432 337.335419,372.068939 
	C346.411957,372.230194 353.081055,365.680817 352.039490,357.252014 
	C351.775879,355.118713 351.888214,352.918396 352.018311,350.760345 
	C352.812531,337.586487 345.541901,334.819550 335.193542,334.111359 
	C327.067902,333.555328 318.873627,334.025452 310.710083,333.990387 
	C305.850311,333.969513 305.073486,332.658813 304.952789,326.015717 
	C304.878448,321.925110 305.733734,319.809052 310.655487,319.884796 
	C329.275513,320.171265 347.902588,320.000000 366.999756,320.000000 
	C366.999756,333.086456 367.361908,345.873260 366.876984,358.627838 
	C366.533234,367.668823 373.173340,371.597961 380.085114,371.927460 
	C387.066803,372.260223 394.076385,372.007904 401.537964,372.482056 
	C401.854462,378.393738 405.950226,376.673279 408.833252,376.999634 
	C408.202484,378.494202 407.571716,379.988770 406.485962,381.335724 
	C404.841553,381.258545 403.652130,381.328979 402.462738,381.399414 
	C403.347534,382.279663 404.232300,383.159882 405.117096,384.040131 
z"/>
<path fill="#FFFFFF" opacity="1.000000" stroke="none" 
	d="
M163.757660,434.261719 
	C157.299591,428.715363 151.098236,423.430115 144.896881,418.144897 
	C174.127350,416.794189 202.960251,418.238861 231.325165,412.752258 
	C238.937698,430.964447 246.370621,448.746918 254.078217,467.186493 
	C220.084534,466.458069 190.806122,453.976898 163.757660,434.261719 
z"/>
<path fill="#FFFFFF" opacity="1.000000" stroke="none" 
	d="
M423.998810,278.192230 
	C424.875549,288.589905 425.751251,298.537750 426.668091,308.952759 
	C409.319427,305.553314 392.831757,307.225311 376.237152,307.441559 
	C380.695282,298.311401 385.394318,288.983704 389.827606,279.531372 
	C394.997620,268.508362 399.917236,257.368103 404.986755,246.297592 
	C406.248627,243.542007 407.618042,240.831436 409.059937,238.166122 
	C409.349792,237.630386 410.441437,236.945786 410.730896,237.106873 
	C411.461548,237.513580 412.211945,238.269287 412.486725,239.049820 
	C414.718872,245.389893 417.038269,251.710114 418.946136,258.150421 
	C420.860626,264.612793 422.332153,271.206360 423.998810,278.192230 
z"/>
<path fill="#FFFFFF" opacity="1.000000" stroke="none" 
	d="
M285.112366,117.955551 
	C285.403656,118.431946 285.694977,118.908333 285.556152,119.743637 
	C281.670898,122.412109 281.047974,125.398407 283.000000,129.444168 
	C283.000000,132.258896 283.000000,134.629440 282.771088,137.171234 
	C283.028107,137.894974 283.514069,138.447495 284.305573,139.000000 
	C285.018555,139.000229 285.425964,139.000458 285.833374,139.000702 
	C284.554626,139.667130 283.279480,140.906097 281.996582,140.914154 
	C262.386658,141.037354 242.775330,141.047836 223.165756,140.897720 
	C221.777451,140.887100 219.211746,139.427078 219.206070,138.626755 
	C219.160858,132.247864 219.515732,125.860001 219.924652,119.486221 
	C220.192169,115.316345 223.296036,114.060997 226.765976,114.048996 
	C244.711624,113.986916 262.657837,114.086159 280.815002,114.873642 
	C281.108917,118.633736 282.488312,119.382584 285.112366,117.955551 
z"/>
<path fill="#FFFFFF" opacity="1.000000" stroke="none" 
	d="
M77.833130,290.000885 
	C77.833130,292.286316 77.833130,294.571747 77.833130,297.991852 
	C76.678635,296.519592 76.050529,295.959473 75.717636,295.259033 
	C66.003380,274.819611 54.423351,255.222198 47.772900,233.397705 
	C46.983662,230.807724 45.547943,228.278244 45.421379,225.671722 
	C45.339588,223.987305 46.799023,221.942581 48.083420,220.527267 
	C53.312157,214.765533 58.683502,209.129410 64.117050,203.558929 
	C67.017296,200.585587 70.151596,197.840561 73.616745,195.270294 
	C74.701973,196.031158 75.350708,196.514206 76.275208,197.004730 
	C76.734726,197.019638 76.918488,197.027054 77.102242,197.034454 
	C77.102242,197.034454 77.015999,197.458801 77.094719,197.899658 
	C77.320084,198.631531 77.539963,198.848236 77.833076,198.990662 
	C77.883812,199.438934 77.934540,199.887192 77.502983,200.687363 
	C76.347298,202.307602 75.092575,203.573181 75.086525,204.844696 
	C74.971085,229.115417 74.871384,253.388214 75.130646,277.656738 
	C75.174706,281.780579 76.889961,285.886627 77.833130,290.000885 
z"/>
<path fill="#FFFFFF" opacity="1.000000" stroke="none" 
	d="
M283.292053,214.000748 
	C287.777710,212.863235 289.485535,215.379883 290.952972,218.505188 
	C303.630188,245.504196 316.348419,272.483948 329.035858,299.478210 
	C330.109589,301.762726 331.048737,304.110535 332.411652,307.265076 
	C321.006989,307.265076 310.218262,307.265076 299.000000,307.265076 
	C299.000000,295.106567 299.553314,282.466034 298.861908,269.893982 
	C297.969421,253.665512 294.082275,238.067169 284.686676,224.433136 
	C282.232422,220.871735 278.684265,218.064178 275.266388,214.525055 
	C278.383606,214.310165 280.623322,214.155777 283.292053,214.000748 
z"/>
<path fill="#FFFFFF" opacity="1.000000" stroke="none" 
	d="
M296.280731,353.346985 
	C297.099670,350.353943 297.676056,347.723297 298.053406,346.000916 
	C310.343781,346.000916 322.074707,345.989227 333.805481,346.027618 
	C334.575500,346.030121 335.948059,346.290771 336.020721,346.642212 
	C336.792236,350.373016 337.806610,354.159668 337.697479,357.900085 
	C337.665863,358.983978 334.268951,360.820343 332.383179,360.861481 
	C320.074982,361.129944 307.758087,360.999542 294.876709,360.999542 
	C295.300812,358.337524 295.669464,356.023468 296.280731,353.346985 
z"/>
<path fill="#FFFFFF" opacity="1.000000" stroke="none" 
	d="
M404.968170,361.000000 
	C398.326630,360.999969 392.179810,360.937866 386.035004,361.023804 
	C382.491699,361.073334 380.882080,359.497528 380.981964,355.959106 
	C381.070374,352.827026 381.000488,349.690491 381.000488,346.280243 
	C394.081635,346.280243 406.943939,346.280243 420.624023,346.280243 
	C419.046326,350.955444 417.692413,355.352386 416.001617,359.615723 
	C415.704742,360.364288 414.019043,360.854279 412.933807,360.938904 
	C410.457275,361.132019 407.955322,360.999939 404.968170,361.000000 
z"/>
<path fill="#FFFFFF" opacity="1.000000" stroke="none" 
	d="
M416.387115,320.898376 
	C416.722748,325.303131 416.722748,329.408630 416.722748,333.756836 
	C404.994171,333.756836 393.283020,333.756836 381.001312,333.756836 
	C381.001312,330.210846 380.814362,326.604950 381.115082,323.040253 
	C381.205414,321.969513 382.621704,320.167053 383.485657,320.133881 
	C393.639740,319.743469 403.804108,319.602905 413.966797,319.488617 
	C414.657440,319.480865 415.356384,320.211761 416.387115,320.898376 
z"/>
<path fill="#FEFEFE" opacity="1.000000" stroke="none" 
	d="
M77.910889,289.537872 
	C76.889961,285.886627 75.174706,281.780579 75.130646,277.656738 
	C74.871384,253.388214 74.971085,229.115417 75.086525,204.844696 
	C75.092575,203.573181 76.347298,202.307602 77.426041,201.019104 
	C77.883812,230.357574 77.936234,259.716217 77.910889,289.537872 
z"/>
<path fill="#FFFFFF" opacity="1.000000" stroke="none" 
	d="
M363.446777,268.890015 
	C362.432983,267.869202 361.315033,266.749847 361.161987,265.511292 
	C360.853577,263.014832 361.070190,260.453491 361.070190,257.225952 
	C362.706573,257.680023 364.906219,258.290375 367.469574,258.949951 
	C366.481873,262.245300 365.130524,265.491394 363.446777,268.890015 
z"/>
<path fill="#FFFFFF" opacity="1.000000" stroke="none" 
	d="
M408.980438,376.668884 
	C405.950226,376.673279 401.854462,378.393738 402.000916,372.559448 
	C403.641022,372.111206 405.283783,372.081757 406.923553,371.995087 
	C410.955750,371.781921 411.586731,373.269653 408.980438,376.668884 
z"/>
<path fill="#FFFFFF" opacity="1.000000" stroke="none" 
	d="
M246.887802,87.958130 
	C252.458359,85.512604 257.494598,87.959152 262.615173,89.986893 
	C258.050446,89.986893 253.485718,89.986893 248.429932,89.618195 
	C247.588531,88.819038 247.238174,88.388580 246.887802,87.958130 
z"/>
<path fill="#FFFFFF" opacity="1.000000" stroke="none" 
	d="
M285.910583,138.545502 
	C285.425964,139.000458 285.018555,139.000229 284.285034,138.702057 
	C283.639313,137.936096 283.319641,137.468048 283.000000,137.000000 
	C283.000000,134.629440 283.000000,132.258896 283.253113,129.279480 
	C284.281891,128.113815 285.057556,127.557045 285.833191,127.000259 
	C285.884735,130.696945 285.936279,134.393616 285.910583,138.545502 
z"/>
<path fill="#FFFFFF" opacity="1.000000" stroke="none" 
	d="
M285.910431,126.567841 
	C285.057556,127.557045 284.281891,128.113815 283.253113,128.835297 
	C281.047974,125.398407 281.670898,122.412109 285.479675,120.051071 
	C285.884766,122.044868 285.936218,124.090149 285.910431,126.567841 
z"/>
<path fill="#FFFFFF" opacity="1.000000" stroke="none" 
	d="
M405.376343,383.965118 
	C404.232300,383.159882 403.347534,382.279663 402.462738,381.399414 
	C403.652130,381.328979 404.841553,381.258545 406.171234,381.549377 
	C406.086182,382.570496 405.860870,383.230286 405.376343,383.965118 
z"/>
<path fill="#FFFFFF" opacity="1.000000" stroke="none" 
	d="
M285.058472,117.591904 
	C282.488312,119.382584 281.108917,118.633736 281.034180,115.251694 
	C282.363007,115.666245 283.683807,116.447243 285.058472,117.591904 
z"/>
<path fill="#FFFFFF" opacity="1.000000" stroke="none" 
	d="
M77.431366,196.895569 
	C76.918488,197.027054 76.734726,197.019638 76.275352,196.605103 
	C75.999825,195.131989 75.999916,194.065994 76.000000,193.000000 
	C76.186119,192.995026 76.372246,192.990051 76.837372,192.972534 
	C77.331085,194.225555 77.545792,195.491135 77.431366,196.895569 
z"/>
<path fill="#FFFFFF" opacity="1.000000" stroke="none" 
	d="
M75.757301,193.096313 
	C75.999916,194.065994 75.999825,195.131989 75.999596,196.597610 
	C75.350708,196.514206 74.701973,196.031158 74.005463,195.216949 
	C73.957703,194.885788 74.009193,194.425217 74.087997,194.207306 
	C74.616066,193.723816 75.065338,193.458221 75.757301,193.096313 
z"/>
<path fill="#FEFEFE" opacity="1.000000" stroke="none" 
	d="
M246.570847,88.092087 
	C247.238174,88.388580 247.588531,88.819038 247.969955,89.540436 
	C247.418640,89.296265 246.836273,88.761154 246.570847,88.092087 
z"/>
<path fill="#FEFEFE" opacity="1.000000" stroke="none" 
	d="
M77.882751,198.721695 
	C77.539963,198.848236 77.320084,198.631531 77.104362,198.115967 
	C77.334328,198.078506 77.633377,198.265610 77.882751,198.721695 
z"/>
<path fill="#FFFFFF" opacity="1.000000" stroke="none" 
	d="
M282.771088,137.171234 
	C283.319641,137.468048 283.639313,137.936096 283.979492,138.702057 
	C283.514069,138.447495 283.028107,137.894974 282.771088,137.171234 
z"/>
</svg>