<svg version="1.1" id="Layer_1" xmlns="http://www.w3.org/2000/svg" xmlns:xlink="http://www.w3.org/1999/xlink" x="0px" y="0px"
	 width="100%" viewBox="0 0 480 480" enable-background="new 0 0 480 480" xml:space="preserve">
<path fill="#232323" opacity="1.000000" stroke="none" 
	d="
M214.000000,1.000000 
	C232.020889,1.000000 250.041794,1.000000 268.621460,1.378304 
	C269.862427,2.153533 270.512573,2.823018 271.231506,2.907560 
	C289.645630,5.072876 307.476318,9.571301 324.822266,16.083708 
	C366.619202,31.776062 401.631134,56.921230 429.231018,91.998505 
	C455.355133,125.200256 472.064453,162.649780 478.203003,204.640442 
	C478.669067,207.828461 480.046326,210.883270 481.000000,214.000000 
	C481.000000,232.020889 481.000000,250.041794 480.621643,268.621216 
	C479.835724,270.028564 479.167175,270.845398 479.058502,271.730865 
	C475.890564,297.553528 468.539459,322.171478 457.146362,345.501984 
	C437.655609,385.414673 409.461945,417.710236 372.117035,442.012848 
	C343.222656,460.816162 311.907654,473.002411 277.816528,478.153778 
	C275.129028,478.559875 272.601746,480.026367 270.000000,481.000000 
	C251.645767,481.000000 233.291550,481.000000 214.376373,480.618866 
	C212.963272,479.838440 212.148285,479.233643 211.253189,479.071747 
	C202.441849,477.477875 193.520386,476.372437 184.813965,474.340759 
	C155.303848,467.454407 128.284195,454.960419 103.388885,437.684753 
	C82.001213,422.843170 63.516037,405.014923 48.162655,384.074493 
	C24.742382,352.131622 9.507238,316.687805 3.770493,277.320068 
	C3.403124,274.799011 1.948719,272.436340 1.000001,270.000000 
	C1.000000,251.312439 1.000000,232.624878 1.376691,213.382294 
	C2.151877,212.147766 2.820675,211.501892 2.909969,210.783936 
	C6.754859,179.869675 16.403122,150.907059 31.580168,123.694206 
	C46.933140,96.165924 66.833954,72.519485 91.579941,53.080456 
	C124.947044,26.869165 162.468063,9.974946 204.633728,3.786371 
	C207.823425,3.318225 210.881012,1.949888 214.000000,1.000000 
M245.997208,200.497208 
	C211.281250,235.213028 176.565292,269.928864 142.142044,304.351959 
	C151.991837,314.196808 161.596558,323.796722 170.628189,332.823853 
	C226.693359,276.758148 283.140350,220.310593 339.399231,164.051178 
	C330.295990,154.959061 320.768158,145.442856 310.898621,135.585388 
	C289.545990,156.941406 268.021576,178.469269 245.997208,200.497208 
M270.272003,301.058990 
	C270.453583,302.039764 270.630737,303.021393 270.817352,304.001221 
	C274.176422,321.636536 291.392059,333.170380 308.666321,329.359619 
	C326.793152,325.360748 337.746002,307.796265 333.154755,290.088776 
	C329.098175,274.443359 313.760529,264.012512 298.107697,266.253876 
	C281.232697,268.670288 269.987457,282.347351 270.272003,301.058990 
M175.657593,141.765381 
	C162.137527,143.014999 152.601791,149.870758 147.872406,162.571045 
	C143.366745,174.670517 145.628189,185.929993 154.467758,195.358765 
	C163.759354,205.269699 175.315842,207.934052 188.181534,203.843185 
	C202.406311,199.320206 211.752747,183.956573 209.486404,169.471313 
	C206.837936,152.543625 194.293243,141.957779 175.657593,141.765381 
M204.941589,441.525238 
	C212.978378,435.015015 216.518097,426.224030 217.175797,416.244110 
	C218.318237,398.908600 205.573151,389.483215 189.020355,395.614960 
	C189.165878,394.064972 189.295975,392.679443 189.444504,391.097382 
	C186.977036,390.379608 184.651230,389.703064 182.084274,388.956360 
	C174.853622,411.932922 167.734833,434.554016 160.502899,457.534637 
	C163.449203,458.419983 166.043747,459.199615 168.766891,460.017914 
	C171.419098,451.769348 173.907944,444.028778 176.527954,435.880310 
	C185.380753,446.170929 193.716400,447.829407 204.941589,441.525238 
M302.412598,55.021328 
	C305.559570,44.581192 308.706573,34.141056 311.942902,23.404512 
	C308.970154,22.551058 306.361267,21.802059 303.638397,21.020336 
	C301.116211,29.253368 298.755585,36.959095 296.394958,44.664822 
	C296.040375,44.858978 295.685791,45.053135 295.331207,45.247292 
	C295.084320,44.654537 294.964264,43.956245 294.571838,43.484577 
	C286.453918,33.727455 273.930481,33.277046 265.020935,42.336739 
	C259.651154,47.797043 257.073547,54.613930 256.067963,61.931480 
	C254.125748,76.064827 260.040741,85.668465 271.944244,87.487282 
	C275.789978,88.074890 279.896484,86.955856 283.983002,86.609093 
	C282.775513,92.521202 288.003204,90.645706 291.182526,92.338188 
	C294.921631,79.856766 298.528259,67.817520 302.412598,55.021328 
M374.214203,391.950317 
	C374.885468,380.439728 369.030670,372.236633 360.343048,365.851379 
	C350.688019,358.755188 339.110199,359.690094 330.698212,367.678436 
	C322.474121,375.488342 321.229858,386.571167 328.190369,396.659912 
	C331.148193,400.947052 334.923248,405.089874 339.222107,407.955048 
	C353.124725,417.221161 371.287079,409.091034 374.214203,391.950317 
M143.338608,77.163574 
	C140.965790,75.368500 138.781113,73.218147 136.185547,71.843719 
	C127.756409,67.380203 119.529953,68.207695 111.834610,73.720749 
	C104.491531,78.981430 101.551315,86.372253 103.263474,95.063988 
	C105.147636,104.628944 110.663567,112.059975 119.180153,116.908615 
	C128.424072,122.171333 138.958740,120.598282 146.697464,113.165054 
	C153.534729,106.597679 155.174408,96.798454 150.529572,87.487122 
	C148.777740,83.975250 146.093033,80.928734 143.338608,77.163574 
M64.347038,201.998703 
	C64.955780,201.011337 65.568787,200.026550 66.172470,199.036102 
	C68.070038,195.922745 70.625595,193.896255 74.424118,195.118805 
	C78.224823,196.342041 78.926880,199.650696 78.997833,203.147858 
	C79.183182,212.283722 75.183556,217.519623 66.325882,219.528839 
	C65.884102,221.978943 65.427612,224.510605 64.659073,228.772888 
	C69.249924,227.162796 73.222816,226.678635 76.037010,224.614639 
	C85.034050,218.016006 87.108315,208.396729 85.666542,197.939331 
	C84.792023,191.596298 80.364197,187.115234 74.983414,186.177032 
	C68.721474,185.085190 64.476128,188.249176 61.190853,193.104980 
	C59.986160,194.885574 58.979469,196.810654 57.995815,198.727982 
	C56.181900,202.263657 54.903233,206.191681 52.518707,209.273010 
	C51.070793,211.144028 47.806835,212.864258 45.657249,212.557861 
	C43.793339,212.292160 41.537136,209.325089 40.867672,207.122421 
	C38.555702,199.515564 43.204136,192.714386 51.934757,190.230499 
	C52.357227,187.747498 52.789032,185.209625 53.524120,180.889252 
	C48.687408,182.757721 44.674908,183.489578 41.664944,185.630753 
	C33.991047,191.089691 31.026030,204.281189 34.839554,213.227493 
	C39.060234,223.128937 49.608200,224.937729 56.248650,216.483597 
	C59.474796,212.376343 61.482819,207.312256 64.347038,201.998703 
M402.064301,263.074585 
	C403.246368,256.867676 406.036774,252.161194 413.109589,251.656174 
	C413.444275,248.774567 413.745087,246.184418 414.072876,243.361908 
	C408.760742,242.812790 404.871399,244.809052 401.609100,248.046326 
	C394.791199,254.811966 392.637543,268.742401 396.897003,277.433960 
	C399.992889,283.751160 406.871490,287.322937 412.529510,284.412842 
	C415.954956,282.651062 418.997009,279.220856 420.991364,275.823975 
	C423.734589,271.151764 424.902405,265.560944 427.597015,260.851044 
	C428.819458,258.714417 432.566193,256.132568 434.312744,256.648315 
	C436.663116,257.342346 439.288025,260.590424 439.860840,263.171539 
	C441.628876,271.138123 437.982758,276.566803 430.053528,279.161926 
	C429.714722,281.652618 429.364563,284.226746 428.806885,288.326508 
	C432.918274,286.802399 436.402924,286.185944 439.100220,284.388123 
	C448.376831,278.205078 450.380310,260.528320 443.064728,252.089005 
	C437.767059,245.977539 429.403137,245.751694 424.530884,252.172256 
	C421.778259,255.799606 420.132660,260.281219 418.089691,264.427948 
	C416.699036,267.250610 415.963013,270.554169 414.032196,272.900238 
	C412.593140,274.648804 409.499176,276.346954 407.528656,275.981873 
	C405.512299,275.608276 403.382080,272.963867 402.388306,270.811676 
	C401.491272,268.869080 402.062866,266.248322 402.064301,263.074585 
M304.489014,413.911896 
	C301.822021,405.053345 299.155060,396.194794 296.426483,387.131714 
	C293.484558,387.956604 290.966248,388.662720 288.091217,389.468842 
	C291.258850,400.032104 294.427277,410.317047 297.372070,420.665619 
	C297.931427,422.631195 298.175537,425.028870 297.579987,426.916351 
	C295.810608,432.524048 289.670563,436.269379 283.457611,436.003754 
	C277.531433,435.750397 275.348755,431.624878 273.868164,426.722076 
	C270.802429,416.570282 267.683350,406.434570 264.528717,396.103943 
	C261.762817,396.882629 259.245911,397.591217 256.086456,398.480682 
	C259.887848,410.576324 263.190002,422.568359 267.488495,434.191956 
	C269.981659,440.933838 275.610229,444.624146 283.261780,443.976471 
	C291.280151,443.297791 297.135803,439.328552 300.744904,431.450439 
	C301.832825,433.818176 302.643982,435.583649 303.623718,437.715973 
	C306.151978,436.990082 308.466003,436.325684 310.954529,435.611206 
	C308.808777,428.345856 306.788757,421.506165 304.489014,413.911896 
M202.332840,50.337315 
	C205.613846,62.259541 208.894852,74.181763 212.249390,86.371208 
	C215.047134,85.684372 217.536240,85.073311 220.432709,84.362236 
	C217.428604,72.540321 214.780472,61.068089 211.533493,49.767929 
	C209.809921,43.769501 206.012833,38.983849 199.279327,38.024857 
	C191.697662,36.945065 185.115921,39.064030 180.208908,45.270775 
	C179.265244,46.464367 178.427994,47.742069 177.390640,49.192032 
	C176.471115,46.921684 175.732925,45.099064 174.905014,43.054897 
	C172.525055,43.624825 170.315430,44.153957 167.565384,44.812508 
	C171.628983,61.298370 175.623154,77.502556 179.698868,94.037575 
	C182.735001,93.270775 185.373230,92.604469 187.846146,91.979919 
	C187.886719,91.274773 187.935852,91.105476 187.899384,90.957245 
	C185.441483,80.964813 182.986496,70.971649 180.508850,60.984097 
	C179.003784,54.917095 181.012970,50.448936 186.637451,47.458557 
	C192.324829,44.434731 197.725800,45.217541 202.332840,50.337315 
M431.707977,178.039429 
	C432.603394,182.396103 433.498810,186.752762 434.468689,191.471771 
	C422.764496,193.914078 411.475647,196.269730 399.825500,198.700760 
	C398.457428,192.891891 397.185730,187.492188 395.853271,181.834564 
	C393.228760,182.486038 391.073242,183.021088 388.645203,183.623795 
	C391.774017,197.643616 394.796356,211.186462 397.869843,224.958405 
	C400.575317,224.321564 402.738037,223.812485 405.078583,223.261536 
	C403.924896,217.736771 402.854431,212.610275 401.739594,207.271439 
	C415.926422,204.272888 429.698730,201.361954 443.896759,198.361038 
	C441.949585,189.712036 440.085266,181.431183 438.220978,173.150330 
	C437.793518,172.935516 437.366089,172.720703 436.938629,172.505905 
	C436.260284,175.840378 430.361816,171.196686 431.707977,178.039429 
M53.725021,141.960114 
	C55.352901,143.779190 56.980778,145.598267 58.820614,147.654205 
	C62.615936,142.335281 65.772911,137.910950 69.102997,133.244049 
	C79.153038,139.967896 88.838120,146.447586 98.616920,152.989960 
	C95.165962,157.995697 92.097115,162.447174 88.919312,167.056702 
	C91.122520,168.541153 92.988274,169.798233 95.094620,171.217422 
	C103.307816,159.517288 111.298668,148.133896 119.449883,136.522064 
	C117.321693,135.097382 115.442703,133.839508 113.263824,132.380890 
	C110.020439,136.905655 106.948875,141.190720 103.687912,145.740005 
	C91.619179,137.716629 79.781914,129.847153 67.786255,121.872360 
	C63.039356,128.608353 58.550648,134.977966 53.725021,141.960114 
M82.914368,249.698975 
	C81.426361,244.198456 77.926971,248.627045 75.102318,247.752365 
	C75.727623,253.414322 76.304214,258.635193 76.918571,264.197968 
	C62.447647,265.888306 48.325230,267.537964 34.043453,269.206207 
	C35.157890,278.128571 36.199684,286.469360 37.267639,295.019623 
	C40.053314,294.549957 42.284256,294.173798 44.572231,293.788055 
	C43.954765,287.966827 43.384487,282.590454 42.782730,276.917297 
	C54.796505,275.549469 66.277832,274.242279 77.960228,272.912201 
	C78.747063,278.856049 79.461189,284.250671 80.229843,290.057190 
	C82.713791,289.715393 84.932953,289.410004 87.537842,289.051544 
	C85.989403,275.966248 84.486809,263.268372 82.914368,249.698975 
M343.986572,87.448807 
	C339.970947,92.663589 335.955353,97.878380 331.987976,103.030510 
	C327.064026,99.559792 322.635437,96.438232 317.964966,93.146194 
	C316.309601,95.364975 314.965973,97.165916 313.512634,99.113937 
	C325.209900,107.497879 336.487549,115.581047 348.022583,123.848709 
	C349.689423,121.581543 351.017853,119.774643 352.421051,117.866058 
	C347.788513,114.447357 343.577637,111.339828 339.220123,108.124092 
	C348.068787,96.430550 356.567780,85.199112 365.220764,73.764198 
	C358.020752,68.612648 351.188477,63.724232 344.170746,58.703091 
	C342.531281,60.860264 341.166443,62.656048 339.653503,64.646744 
	C344.360901,68.094040 348.754883,71.311790 353.496490,74.784134 
	C350.357330,78.940910 347.368439,82.898712 343.986572,87.448807 
M379.533173,328.179810 
	C392.287689,334.092682 405.042236,340.005554 418.219574,346.114441 
	C422.000916,338.439056 425.702972,330.924500 429.633575,322.946075 
	C427.294281,321.822876 425.289612,320.860321 422.891937,319.709045 
	C420.254333,324.984467 417.770111,329.953186 415.181580,335.130493 
	C404.230499,330.002472 393.635925,325.041382 382.932861,320.029480 
	C385.535522,314.730255 387.929840,309.855316 390.520081,304.581451 
	C388.191925,303.499603 386.168030,302.559174 383.773071,301.446289 
	C377.386597,314.345093 371.190521,326.859375 364.924164,339.515564 
	C367.478210,340.652985 369.529449,341.566467 371.673309,342.521210 
	C374.197083,337.667236 376.561035,333.120575 379.533173,328.179810 
M116.621468,401.815460 
	C115.226166,400.519196 113.830864,399.222931 112.349396,397.846619 
	C120.678040,388.917023 128.550720,380.476257 136.519714,371.932251 
	C141.064453,375.885986 145.189835,379.474915 149.444778,383.176544 
	C151.158966,381.366150 152.730530,379.706360 154.586090,377.746643 
	C143.809540,368.287811 133.284454,359.049744 122.653175,349.718445 
	C120.722260,351.794617 119.201660,353.429626 117.595192,355.156952 
	C121.996712,359.123199 125.905968,362.645905 129.875427,366.222839 
	C119.980614,376.881134 110.403130,387.197632 100.580086,397.778595 
	C107.243301,403.636353 113.561333,409.190613 120.047073,414.892334 
	C121.859818,412.905548 123.399254,411.218292 125.079330,409.376923 
	C122.366989,406.932617 119.777168,404.598724 116.621468,401.815460 
M402.410553,149.811905 
	C410.193451,148.368713 417.976349,146.925522 425.839691,145.467407 
	C422.372101,137.681107 422.381866,137.725128 414.983582,139.368973 
	C408.989990,140.700729 402.969238,141.910278 396.960388,143.173508 
	C391.515533,144.318192 386.070526,145.462173 379.224091,146.901016 
	C387.043518,136.479446 393.893433,127.369263 400.721619,118.242828 
	C405.286682,112.141289 405.272827,112.130928 399.480438,105.790825 
	C389.893524,119.385948 380.393677,132.946457 370.766876,146.416199 
	C369.274139,148.504791 368.553101,150.006516 370.232788,152.504242 
	C371.868958,154.937332 373.546631,155.103577 376.079956,154.605240 
	C384.550110,152.939041 393.060425,151.477188 402.410553,149.811905 
M77.749664,354.269714 
	C86.238846,344.449493 94.673622,334.581299 103.261070,324.847778 
	C105.076447,322.790131 105.358124,321.204865 104.033676,318.712555 
	C102.762238,316.319855 101.288620,316.021240 98.868050,316.270752 
	C91.580643,317.021942 84.263161,317.477173 76.960747,318.087830 
	C67.397247,318.887634 57.836941,319.725647 48.188080,320.554688 
	C50.638718,328.306427 51.160812,328.662109 58.125813,327.769623 
	C62.254276,327.240601 66.380524,326.686432 70.517830,326.235931 
	C78.138229,325.406158 85.766045,324.644470 94.570328,323.732208 
	C84.353897,334.964264 75.092453,345.146393 65.818359,355.342468 
	C67.271362,357.885254 68.567322,360.153198 70.148994,362.921173 
	C72.745865,359.950134 75.002823,357.368011 77.749664,354.269714 
M427.836548,350.558990 
	C429.049683,351.334747 430.552887,352.994202 431.418213,352.710205 
	C433.490540,352.029999 436.093567,350.819946 436.894073,349.089142 
	C437.537781,347.697418 436.355011,344.076660 435.078308,343.520355 
	C433.360992,342.772064 430.380249,343.449371 428.700043,344.611267 
	C427.591705,345.377747 427.817322,348.073120 427.836548,350.558990 
M100.106903,409.796783 
	C98.145134,408.332733 96.347771,406.386658 94.143105,405.634674 
	C93.222191,405.320557 90.827682,407.259949 90.166801,408.672394 
	C88.705780,411.794952 90.317116,414.392151 93.342049,415.366425 
	C97.322830,416.648499 99.618103,414.631500 100.106903,409.796783 
M18.636234,279.761688 
	C19.608883,279.947021 20.589823,280.324738 21.552696,280.283234 
	C25.088465,280.130798 26.611763,278.139557 26.248793,274.682983 
	C25.884930,271.217926 23.868422,269.550446 20.472603,270.119110 
	C17.084450,270.686462 15.727568,273.006256 16.432259,276.317352 
	C16.658455,277.380188 17.499823,278.312103 18.636234,279.761688 
M373.568817,63.957733 
	C373.590637,61.716835 374.338013,59.072372 373.391235,57.370255 
	C372.706512,56.139244 369.034698,55.122383 368.006409,55.853745 
	C366.268463,57.089890 364.485046,59.889843 364.673553,61.843853 
	C364.995575,65.181259 368.945496,66.115662 373.568817,63.957733 
M450.920044,190.530441 
	C451.143677,193.886536 452.369171,196.804703 456.212402,196.129166 
	C458.000824,195.814835 460.681030,193.570602 460.736206,192.116913 
	C460.810333,190.163528 459.193207,187.160904 457.478882,186.350845 
	C454.770233,185.070938 451.908264,186.209641 450.920044,190.530441 
M50.768642,114.263374 
	C48.649883,116.589195 47.439648,119.438576 50.247784,121.569366 
	C51.792263,122.741310 55.316387,123.196564 56.669895,122.214134 
	C58.123829,121.158813 59.097923,117.671913 58.458721,115.905708 
	C57.421215,113.038918 54.537056,112.024124 50.768642,114.263374 
z"/>
<path fill="#000000" opacity="1.000000" stroke="none" 
	d="
M481.000000,213.531342 
	C480.046326,210.883270 478.669067,207.828461 478.203003,204.640442 
	C472.064453,162.649780 455.355133,125.200256 429.231018,91.998505 
	C401.631134,56.921230 366.619202,31.776062 324.822266,16.083708 
	C307.476318,9.571301 289.645630,5.072876 271.231506,2.907560 
	C270.512573,2.823018 269.862427,2.153533 269.090088,1.378304 
	C339.593872,1.000000 410.187714,1.000000 481.000000,1.000000 
	C481.000000,71.687408 481.000000,142.375046 481.000000,213.531342 
z"/>
<path fill="#000000" opacity="1.000000" stroke="none" 
	d="
M213.531342,1.000000 
	C210.881012,1.949888 207.823425,3.318225 204.633728,3.786371 
	C162.468063,9.974946 124.947044,26.869165 91.579941,53.080456 
	C66.833954,72.519485 46.933140,96.165924 31.580168,123.694206 
	C16.403122,150.907059 6.754859,179.869675 2.909969,210.783936 
	C2.820675,211.501892 2.151877,212.147766 1.376691,212.913635 
	C1.000000,142.406128 1.000000,71.812241 1.000000,1.000000 
	C71.687408,1.000000 142.375046,1.000000 213.531342,1.000000 
z"/>
<path fill="#000000" opacity="1.000000" stroke="none" 
	d="
M1.000001,270.468658 
	C1.948719,272.436340 3.403124,274.799011 3.770493,277.320068 
	C9.507238,316.687805 24.742382,352.131622 48.162655,384.074493 
	C63.516037,405.014923 82.001213,422.843170 103.388885,437.684753 
	C128.284195,454.960419 155.303848,467.454407 184.813965,474.340759 
	C193.520386,476.372437 202.441849,477.477875 211.253189,479.071747 
	C212.148285,479.233643 212.963272,479.838440 213.907715,480.618866 
	C143.073318,481.000000 72.146637,481.000000 1.000000,481.000000 
	C1.000000,410.979248 1.000000,340.958282 1.000001,270.468658 
z"/>
<path fill="#000000" opacity="1.000000" stroke="none" 
	d="
M270.468658,481.000000 
	C272.601746,480.026367 275.129028,478.559875 277.816528,478.153778 
	C311.907654,473.002411 343.222656,460.816162 372.117035,442.012848 
	C409.461945,417.710236 437.655609,385.414673 457.146362,345.501984 
	C468.539459,322.171478 475.890564,297.553528 479.058502,271.730865 
	C479.167175,270.845398 479.835724,270.028564 480.621643,269.089844 
	C481.000000,339.593506 481.000000,410.187042 481.000000,481.000000 
	C410.979248,481.000000 340.958282,481.000000 270.468658,481.000000 
z"/>
<path fill="#FDFDFD" opacity="1.000000" stroke="none" 
	d="
M246.247162,200.247162 
	C268.021576,178.469269 289.545990,156.941406 310.898621,135.585388 
	C320.768158,145.442856 330.295990,154.959061 339.399231,164.051178 
	C283.140350,220.310593 226.693359,276.758148 170.628189,332.823853 
	C161.596558,323.796722 151.991837,314.196808 142.142044,304.351959 
	C176.565292,269.928864 211.281250,235.213028 246.247162,200.247162 
z"/>
<path fill="#FDFDFD" opacity="1.000000" stroke="none" 
	d="
M270.240662,300.622192 
	C269.987457,282.347351 281.232697,268.670288 298.107697,266.253876 
	C313.760529,264.012512 329.098175,274.443359 333.154755,290.088776 
	C337.746002,307.796265 326.793152,325.360748 308.666321,329.359619 
	C291.392059,333.170380 274.176422,321.636536 270.817352,304.001221 
	C270.630737,303.021393 270.453583,302.039764 270.240662,300.622192 
z"/>
<path fill="#FEFEFE" opacity="1.000000" stroke="none" 
	d="
M176.120575,141.735809 
	C194.293243,141.957779 206.837936,152.543625 209.486404,169.471313 
	C211.752747,183.956573 202.406311,199.320206 188.181534,203.843185 
	C175.315842,207.934052 163.759354,205.269699 154.467758,195.358765 
	C145.628189,185.929993 143.366745,174.670517 147.872406,162.571045 
	C152.601791,149.870758 162.137527,143.014999 176.120575,141.735809 
z"/>
<path fill="#F9F9F9" opacity="1.000000" stroke="none" 
	d="
M204.642212,441.739899 
	C193.716400,447.829407 185.380753,446.170929 176.527954,435.880310 
	C173.907944,444.028778 171.419098,451.769348 168.766891,460.017914 
	C166.043747,459.199615 163.449203,458.419983 160.502899,457.534637 
	C167.734833,434.554016 174.853622,411.932922 182.084274,388.956360 
	C184.651230,389.703064 186.977036,390.379608 189.444504,391.097382 
	C189.295975,392.679443 189.165878,394.064972 189.020355,395.614960 
	C205.573151,389.483215 218.318237,398.908600 217.175797,416.244110 
	C216.518097,426.224030 212.978378,435.015015 204.642212,441.739899 
M190.260132,401.512360 
	C188.689499,403.302063 186.486588,404.844299 185.670578,406.929321 
	C183.502167,412.469818 181.646744,418.176300 180.264893,423.959656 
	C179.715424,426.259308 180.054794,429.308716 181.175949,431.372162 
	C184.945343,438.309570 194.553909,439.645569 200.398056,434.150116 
	C206.723740,428.201935 209.219940,420.428833 208.632217,412.040558 
	C207.982437,402.766815 200.304306,398.354523 190.260132,401.512360 
z"/>
<path fill="#F9F9F9" opacity="1.000000" stroke="none" 
	d="
M302.273743,55.399803 
	C298.528259,67.817520 294.921631,79.856766 291.182526,92.338188 
	C288.003204,90.645706 282.775513,92.521202 283.983002,86.609093 
	C279.896484,86.955856 275.789978,88.074890 271.944244,87.487282 
	C260.040741,85.668465 254.125748,76.064827 256.067963,61.931480 
	C257.073547,54.613930 259.651154,47.797043 265.020935,42.336739 
	C273.930481,33.277046 286.453918,33.727455 294.571838,43.484577 
	C294.964264,43.956245 295.084320,44.654537 295.331207,45.247292 
	C295.685791,45.053135 296.040375,44.858978 296.394958,44.664822 
	C298.755585,36.959095 301.116211,29.253368 303.638397,21.020336 
	C306.361267,21.802059 308.970154,22.551058 311.942902,23.404512 
	C308.706573,34.141056 305.559570,44.581192 302.273743,55.399803 
M287.889648,73.229454 
	C289.300873,68.469376 290.694763,63.704079 292.127686,58.950535 
	C293.908569,53.042637 292.714447,48.989082 288.268738,46.001862 
	C283.768280,42.977852 277.507629,43.069805 273.319336,46.221462 
	C266.609833,51.270302 262.414032,64.888336 265.102264,72.891075 
	C266.739441,77.764854 271.340759,81.026665 277.010071,81.030983 
	C282.035217,81.034813 286.093445,79.321350 287.889648,73.229454 
z"/>
<path fill="#F9F9F9" opacity="1.000000" stroke="none" 
	d="
M374.177612,392.351196 
	C371.287079,409.091034 353.124725,417.221161 339.222107,407.955048 
	C334.923248,405.089874 331.148193,400.947052 328.190369,396.659912 
	C321.229858,386.571167 322.474121,375.488342 330.698212,367.678436 
	C339.110199,359.690094 350.688019,358.755188 360.343048,365.851379 
	C369.030670,372.236633 374.885468,380.439728 374.177612,392.351196 
M358.904266,402.824707 
	C365.217346,398.700439 367.574707,394.170563 365.759369,387.813934 
	C363.368286,379.441223 358.236053,373.059082 349.982880,369.752350 
	C344.746277,367.654266 339.848755,368.686707 335.753967,372.678192 
	C331.765289,376.566254 331.067047,381.198975 332.761169,386.389954 
	C334.858093,392.815369 338.939331,397.692505 344.449097,401.397339 
	C348.675598,404.239319 353.273773,405.046417 358.904266,402.824707 
z"/>
<path fill="#F9F9F9" opacity="1.000000" stroke="none" 
	d="
M143.586090,77.416824 
	C146.093033,80.928734 148.777740,83.975250 150.529572,87.487122 
	C155.174408,96.798454 153.534729,106.597679 146.697464,113.165054 
	C138.958740,120.598282 128.424072,122.171333 119.180153,116.908615 
	C110.663567,112.059975 105.147636,104.628944 103.263474,95.063988 
	C101.551315,86.372253 104.491531,78.981430 111.834610,73.720749 
	C119.529953,68.207695 127.756409,67.380203 136.185547,71.843719 
	C138.781113,73.218147 140.965790,75.368500 143.586090,77.416824 
M121.958672,76.939156 
	C114.388046,79.012070 110.204285,83.907455 111.192963,90.746178 
	C112.593369,100.432678 117.927513,107.718987 127.031837,111.462143 
	C135.436172,114.917503 144.543076,108.788269 144.982147,100.010101 
	C145.458389,90.488503 133.289780,74.843903 121.958672,76.939156 
z"/>
<path fill="#F8F8F8" opacity="1.000000" stroke="none" 
	d="
M64.194656,202.340027 
	C61.482819,207.312256 59.474796,212.376343 56.248650,216.483597 
	C49.608200,224.937729 39.060234,223.128937 34.839554,213.227493 
	C31.026030,204.281189 33.991047,191.089691 41.664944,185.630753 
	C44.674908,183.489578 48.687408,182.757721 53.524120,180.889252 
	C52.789032,185.209625 52.357227,187.747498 51.934757,190.230499 
	C43.204136,192.714386 38.555702,199.515564 40.867672,207.122421 
	C41.537136,209.325089 43.793339,212.292160 45.657249,212.557861 
	C47.806835,212.864258 51.070793,211.144028 52.518707,209.273010 
	C54.903233,206.191681 56.181900,202.263657 57.995815,198.727982 
	C58.979469,196.810654 59.986160,194.885574 61.190853,193.104980 
	C64.476128,188.249176 68.721474,185.085190 74.983414,186.177032 
	C80.364197,187.115234 84.792023,191.596298 85.666542,197.939331 
	C87.108315,208.396729 85.034050,218.016006 76.037010,224.614639 
	C73.222816,226.678635 69.249924,227.162796 64.659073,228.772888 
	C65.427612,224.510605 65.884102,221.978943 66.325882,219.528839 
	C75.183556,217.519623 79.183182,212.283722 78.997833,203.147858 
	C78.926880,199.650696 78.224823,196.342041 74.424118,195.118805 
	C70.625595,193.896255 68.070038,195.922745 66.172470,199.036102 
	C65.568787,200.026550 64.955780,201.011337 64.194656,202.340027 
z"/>
<path fill="#F8F8F8" opacity="1.000000" stroke="none" 
	d="
M402.025574,263.500610 
	C402.062866,266.248322 401.491272,268.869080 402.388306,270.811676 
	C403.382080,272.963867 405.512299,275.608276 407.528656,275.981873 
	C409.499176,276.346954 412.593140,274.648804 414.032196,272.900238 
	C415.963013,270.554169 416.699036,267.250610 418.089691,264.427948 
	C420.132660,260.281219 421.778259,255.799606 424.530884,252.172256 
	C429.403137,245.751694 437.767059,245.977539 443.064728,252.089005 
	C450.380310,260.528320 448.376831,278.205078 439.100220,284.388123 
	C436.402924,286.185944 432.918274,286.802399 428.806885,288.326508 
	C429.364563,284.226746 429.714722,281.652618 430.053528,279.161926 
	C437.982758,276.566803 441.628876,271.138123 439.860840,263.171539 
	C439.288025,260.590424 436.663116,257.342346 434.312744,256.648315 
	C432.566193,256.132568 428.819458,258.714417 427.597015,260.851044 
	C424.902405,265.560944 423.734589,271.151764 420.991364,275.823975 
	C418.997009,279.220856 415.954956,282.651062 412.529510,284.412842 
	C406.871490,287.322937 399.992889,283.751160 396.897003,277.433960 
	C392.637543,268.742401 394.791199,254.811966 401.609100,248.046326 
	C404.871399,244.809052 408.760742,242.812790 414.072876,243.361908 
	C413.745087,246.184418 413.444275,248.774567 413.109589,251.656174 
	C406.036774,252.161194 403.246368,256.867676 402.025574,263.500610 
z"/>
<path fill="#F8F8F8" opacity="1.000000" stroke="none" 
	d="
M304.628845,414.289185 
	C306.788757,421.506165 308.808777,428.345856 310.954529,435.611206 
	C308.466003,436.325684 306.151978,436.990082 303.623718,437.715973 
	C302.643982,435.583649 301.832825,433.818176 300.744904,431.450439 
	C297.135803,439.328552 291.280151,443.297791 283.261780,443.976471 
	C275.610229,444.624146 269.981659,440.933838 267.488495,434.191956 
	C263.190002,422.568359 259.887848,410.576324 256.086456,398.480682 
	C259.245911,397.591217 261.762817,396.882629 264.528717,396.103943 
	C267.683350,406.434570 270.802429,416.570282 273.868164,426.722076 
	C275.348755,431.624878 277.531433,435.750397 283.457611,436.003754 
	C289.670563,436.269379 295.810608,432.524048 297.579987,426.916351 
	C298.175537,425.028870 297.931427,422.631195 297.372070,420.665619 
	C294.427277,410.317047 291.258850,400.032104 288.091217,389.468842 
	C290.966248,388.662720 293.484558,387.956604 296.426483,387.131714 
	C299.155060,396.194794 301.822021,405.053345 304.628845,414.289185 
z"/>
<path fill="#F8F8F8" opacity="1.000000" stroke="none" 
	d="
M202.128159,50.005711 
	C197.725800,45.217541 192.324829,44.434731 186.637451,47.458557 
	C181.012970,50.448936 179.003784,54.917095 180.508850,60.984097 
	C182.986496,70.971649 185.441483,80.964813 187.899384,90.957245 
	C187.935852,91.105476 187.886719,91.274773 187.846146,91.979919 
	C185.373230,92.604469 182.735001,93.270775 179.698868,94.037575 
	C175.623154,77.502556 171.628983,61.298370 167.565384,44.812508 
	C170.315430,44.153957 172.525055,43.624825 174.905014,43.054897 
	C175.732925,45.099064 176.471115,46.921684 177.390640,49.192032 
	C178.427994,47.742069 179.265244,46.464367 180.208908,45.270775 
	C185.115921,39.064030 191.697662,36.945065 199.279327,38.024857 
	C206.012833,38.983849 209.809921,43.769501 211.533493,49.767929 
	C214.780472,61.068089 217.428604,72.540321 220.432709,84.362236 
	C217.536240,85.073311 215.047134,85.684372 212.249390,86.371208 
	C208.894852,74.181763 205.613846,62.259541 202.128159,50.005711 
z"/>
<path fill="#F8F8F8" opacity="1.000000" stroke="none" 
	d="
M431.587402,177.648132 
	C430.361816,171.196686 436.260284,175.840378 436.938629,172.505905 
	C437.366089,172.720703 437.793518,172.935516 438.220978,173.150330 
	C440.085266,181.431183 441.949585,189.712036 443.896759,198.361038 
	C429.698730,201.361954 415.926422,204.272888 401.739594,207.271439 
	C402.854431,212.610275 403.924896,217.736771 405.078583,223.261536 
	C402.738037,223.812485 400.575317,224.321564 397.869843,224.958405 
	C394.796356,211.186462 391.774017,197.643616 388.645203,183.623795 
	C391.073242,183.021088 393.228760,182.486038 395.853271,181.834564 
	C397.185730,187.492188 398.457428,192.891891 399.825500,198.700760 
	C411.475647,196.269730 422.764496,193.914078 434.468689,191.471771 
	C433.498810,186.752762 432.603394,182.396103 431.587402,177.648132 
z"/>
<path fill="#F9F9F9" opacity="1.000000" stroke="none" 
	d="
M53.893478,141.653839 
	C58.550648,134.977966 63.039356,128.608353 67.786255,121.872360 
	C79.781914,129.847153 91.619179,137.716629 103.687912,145.740005 
	C106.948875,141.190720 110.020439,136.905655 113.263824,132.380890 
	C115.442703,133.839508 117.321693,135.097382 119.449883,136.522064 
	C111.298668,148.133896 103.307816,159.517288 95.094620,171.217422 
	C92.988274,169.798233 91.122520,168.541153 88.919312,167.056702 
	C92.097115,162.447174 95.165962,157.995697 98.616920,152.989960 
	C88.838120,146.447586 79.153038,139.967896 69.102997,133.244049 
	C65.772911,137.910950 62.615936,142.335281 58.820614,147.654205 
	C56.980778,145.598267 55.352901,143.779190 53.893478,141.653839 
z"/>
<path fill="#F8F8F8" opacity="1.000000" stroke="none" 
	d="
M82.949295,250.134735 
	C84.486809,263.268372 85.989403,275.966248 87.537842,289.051544 
	C84.932953,289.410004 82.713791,289.715393 80.229843,290.057190 
	C79.461189,284.250671 78.747063,278.856049 77.960228,272.912201 
	C66.277832,274.242279 54.796505,275.549469 42.782730,276.917297 
	C43.384487,282.590454 43.954765,287.966827 44.572231,293.788055 
	C42.284256,294.173798 40.053314,294.549957 37.267639,295.019623 
	C36.199684,286.469360 35.157890,278.128571 34.043453,269.206207 
	C48.325230,267.537964 62.447647,265.888306 76.918571,264.197968 
	C76.304214,258.635193 75.727623,253.414322 75.102318,247.752365 
	C77.926971,248.627045 81.426361,244.198456 82.949295,250.134735 
z"/>
<path fill="#F8F8F8" opacity="1.000000" stroke="none" 
	d="
M344.183044,87.152664 
	C347.368439,82.898712 350.357330,78.940910 353.496490,74.784134 
	C348.754883,71.311790 344.360901,68.094040 339.653503,64.646744 
	C341.166443,62.656048 342.531281,60.860264 344.170746,58.703091 
	C351.188477,63.724232 358.020752,68.612648 365.220764,73.764198 
	C356.567780,85.199112 348.068787,96.430550 339.220123,108.124092 
	C343.577637,111.339828 347.788513,114.447357 352.421051,117.866058 
	C351.017853,119.774643 349.689423,121.581543 348.022583,123.848709 
	C336.487549,115.581047 325.209900,107.497879 313.512634,99.113937 
	C314.965973,97.165916 316.309601,95.364975 317.964966,93.146194 
	C322.635437,96.438232 327.064026,99.559792 331.987976,103.030510 
	C335.955353,97.878380 339.970947,92.663589 344.183044,87.152664 
z"/>
<path fill="#F7F7F7" opacity="1.000000" stroke="none" 
	d="
M379.229095,328.376862 
	C376.561035,333.120575 374.197083,337.667236 371.673309,342.521210 
	C369.529449,341.566467 367.478210,340.652985 364.924164,339.515564 
	C371.190521,326.859375 377.386597,314.345093 383.773071,301.446289 
	C386.168030,302.559174 388.191925,303.499603 390.520081,304.581451 
	C387.929840,309.855316 385.535522,314.730255 382.932861,320.029480 
	C393.635925,325.041382 404.230499,330.002472 415.181580,335.130493 
	C417.770111,329.953186 420.254333,324.984467 422.891937,319.709045 
	C425.289612,320.860321 427.294281,321.822876 429.633575,322.946075 
	C425.702972,330.924500 422.000916,338.439056 418.219574,346.114441 
	C405.042236,340.005554 392.287689,334.092682 379.229095,328.376862 
z"/>
<path fill="#F8F8F8" opacity="1.000000" stroke="none" 
	d="
M116.904411,402.040161 
	C119.777168,404.598724 122.366989,406.932617 125.079330,409.376923 
	C123.399254,411.218292 121.859818,412.905548 120.047073,414.892334 
	C113.561333,409.190613 107.243301,403.636353 100.580086,397.778595 
	C110.403130,387.197632 119.980614,376.881134 129.875427,366.222839 
	C125.905968,362.645905 121.996712,359.123199 117.595192,355.156952 
	C119.201660,353.429626 120.722260,351.794617 122.653175,349.718445 
	C133.284454,359.049744 143.809540,368.287811 154.586090,377.746643 
	C152.730530,379.706360 151.158966,381.366150 149.444778,383.176544 
	C145.189835,379.474915 141.064453,375.885986 136.519714,371.932251 
	C128.550720,380.476257 120.678040,388.917023 112.349396,397.846619 
	C113.830864,399.222931 115.226166,400.519196 116.904411,402.040161 
z"/>
<path fill="#F7F7F7" opacity="1.000000" stroke="none" 
	d="
M401.982971,149.874481 
	C393.060425,151.477188 384.550110,152.939041 376.079956,154.605240 
	C373.546631,155.103577 371.868958,154.937332 370.232788,152.504242 
	C368.553101,150.006516 369.274139,148.504791 370.766876,146.416199 
	C380.393677,132.946457 389.893524,119.385948 399.480438,105.790825 
	C405.272827,112.130928 405.286682,112.141289 400.721619,118.242828 
	C393.893433,127.369263 387.043518,136.479446 379.224091,146.901016 
	C386.070526,145.462173 391.515533,144.318192 396.960388,143.173508 
	C402.969238,141.910278 408.989990,140.700729 414.983582,139.368973 
	C422.381866,137.725128 422.372101,137.681107 425.839691,145.467407 
	C417.976349,146.925522 410.193451,148.368713 401.982971,149.874481 
z"/>
<path fill="#F8F8F8" opacity="1.000000" stroke="none" 
	d="
M77.504730,354.527771 
	C75.002823,357.368011 72.745865,359.950134 70.148994,362.921173 
	C68.567322,360.153198 67.271362,357.885254 65.818359,355.342468 
	C75.092453,345.146393 84.353897,334.964264 94.570328,323.732208 
	C85.766045,324.644470 78.138229,325.406158 70.517830,326.235931 
	C66.380524,326.686432 62.254276,327.240601 58.125813,327.769623 
	C51.160812,328.662109 50.638718,328.306427 48.188080,320.554688 
	C57.836941,319.725647 67.397247,318.887634 76.960747,318.087830 
	C84.263161,317.477173 91.580643,317.021942 98.868050,316.270752 
	C101.288620,316.021240 102.762238,316.319855 104.033676,318.712555 
	C105.358124,321.204865 105.076447,322.790131 103.261070,324.847778 
	C94.673622,334.581299 86.238846,344.449493 77.504730,354.527771 
z"/>
<path fill="#F1F1F1" opacity="1.000000" stroke="none" 
	d="
M427.641113,350.231934 
	C427.817322,348.073120 427.591705,345.377747 428.700043,344.611267 
	C430.380249,343.449371 433.360992,342.772064 435.078308,343.520355 
	C436.355011,344.076660 437.537781,347.697418 436.894073,349.089142 
	C436.093567,350.819946 433.490540,352.029999 431.418213,352.710205 
	C430.552887,352.994202 429.049683,351.334747 427.641113,350.231934 
z"/>
<path fill="#F7F7F7" opacity="1.000000" stroke="none" 
	d="
M100.143402,410.185791 
	C99.618103,414.631500 97.322830,416.648499 93.342049,415.366425 
	C90.317116,414.392151 88.705780,411.794952 90.166801,408.672394 
	C90.827682,407.259949 93.222191,405.320557 94.143105,405.634674 
	C96.347771,406.386658 98.145134,408.332733 100.143402,410.185791 
z"/>
<path fill="#F4F4F4" opacity="1.000000" stroke="none" 
	d="
M18.347992,279.532776 
	C17.499823,278.312103 16.658455,277.380188 16.432259,276.317352 
	C15.727568,273.006256 17.084450,270.686462 20.472603,270.119110 
	C23.868422,269.550446 25.884930,271.217926 26.248793,274.682983 
	C26.611763,278.139557 25.088465,280.130798 21.552696,280.283234 
	C20.589823,280.324738 19.608883,279.947021 18.347992,279.532776 
z"/>
<path fill="#F1F1F1" opacity="1.000000" stroke="none" 
	d="
M373.279785,64.197449 
	C368.945496,66.115662 364.995575,65.181259 364.673553,61.843853 
	C364.485046,59.889843 366.268463,57.089890 368.006409,55.853745 
	C369.034698,55.122383 372.706512,56.139244 373.391235,57.370255 
	C374.338013,59.072372 373.590637,61.716835 373.279785,64.197449 
z"/>
<path fill="#F4F4F4" opacity="1.000000" stroke="none" 
	d="
M450.947388,190.133972 
	C451.908264,186.209641 454.770233,185.070938 457.478882,186.350845 
	C459.193207,187.160904 460.810333,190.163528 460.736206,192.116913 
	C460.681030,193.570602 458.000824,195.814835 456.212402,196.129166 
	C452.369171,196.804703 451.143677,193.886536 450.947388,190.133972 
z"/>
<path fill="#F4F4F4" opacity="1.000000" stroke="none" 
	d="
M51.105461,114.046593 
	C54.537056,112.024124 57.421215,113.038918 58.458721,115.905708 
	C59.097923,117.671913 58.123829,121.158813 56.669895,122.214134 
	C55.316387,123.196564 51.792263,122.741310 50.247784,121.569366 
	C47.439648,119.438576 48.649883,116.589195 51.105461,114.046593 
z"/>
<path fill="#262626" opacity="1.000000" stroke="none" 
	d="
M190.605774,401.328247 
	C200.304306,398.354523 207.982437,402.766815 208.632217,412.040558 
	C209.219940,420.428833 206.723740,428.201935 200.398056,434.150116 
	C194.553909,439.645569 184.945343,438.309570 181.175949,431.372162 
	C180.054794,429.308716 179.715424,426.259308 180.264893,423.959656 
	C181.646744,418.176300 183.502167,412.469818 185.670578,406.929321 
	C186.486588,404.844299 188.689499,403.302063 190.605774,401.328247 
z"/>
<path fill="#262626" opacity="1.000000" stroke="none" 
	d="
M287.768951,73.599915 
	C286.093445,79.321350 282.035217,81.034813 277.010071,81.030983 
	C271.340759,81.026665 266.739441,77.764854 265.102264,72.891075 
	C262.414032,64.888336 266.609833,51.270302 273.319336,46.221462 
	C277.507629,43.069805 283.768280,42.977852 288.268738,46.001862 
	C292.714447,48.989082 293.908569,53.042637 292.127686,58.950535 
	C290.694763,63.704079 289.300873,68.469376 287.768951,73.599915 
z"/>
<path fill="#252525" opacity="1.000000" stroke="none" 
	d="
M358.528992,402.961304 
	C353.273773,405.046417 348.675598,404.239319 344.449097,401.397339 
	C338.939331,397.692505 334.858093,392.815369 332.761169,386.389954 
	C331.067047,381.198975 331.765289,376.566254 335.753967,372.678192 
	C339.848755,368.686707 344.746277,367.654266 349.982880,369.752350 
	C358.236053,373.059082 363.368286,379.441223 365.759369,387.813934 
	C367.574707,394.170563 365.217346,398.700439 358.528992,402.961304 
z"/>
<path fill="#252525" opacity="1.000000" stroke="none" 
	d="
M122.378510,76.901306 
	C133.289780,74.843903 145.458389,90.488503 144.982147,100.010101 
	C144.543076,108.788269 135.436172,114.917503 127.031837,111.462143 
	C117.927513,107.718987 112.593369,100.432678 111.192963,90.746178 
	C110.204285,83.907455 114.388046,79.012070 122.378510,76.901306 
z"/>
</svg>