<?xml version="1.0" standalone="no"?>
<!DOCTYPE svg PUBLIC "-//W3C//DTD SVG 20010904//EN"
 "http://www.w3.org/TR/2001/REC-SVG-20010904/DTD/svg10.dtd">
<svg version="1.0" xmlns="http://www.w3.org/2000/svg"
 width="1024.000000pt" height="1024.000000pt" viewBox="0 0 1024.000000 1024.000000"
 preserveAspectRatio="xMidYMid meet">

<g transform="translate(0.000000,1024.000000) scale(0.100000,-0.100000)"
fill="#ffffff" stroke="none">
<path d="M5936 5949 c-27 -21 -28 -21 -60 -4 -31 17 -36 17 -74 2 -22 -9 -100
-21 -174 -27 -73 -6 -161 -18 -196 -26 -35 -8 -103 -14 -152 -14 -108 0 -120
-4 -120 -41 0 -17 -8 -34 -22 -43 -31 -22 -40 -10 -23 31 8 19 12 39 9 44 -8
13 -113 10 -154 -4 -30 -10 -38 -20 -52 -62 -21 -63 -23 -124 -4 -131 8 -3 49
11 93 31 60 29 93 38 147 41 96 5 132 18 145 55 12 36 19 36 31 3 9 -24 14
-26 48 -20 20 3 57 6 82 6 57 0 70 9 79 51 9 43 36 46 36 4 0 -29 2 -30 48
-33 28 -2 67 4 93 14 27 10 57 14 80 11 44 -7 80 6 89 32 8 27 21 27 28 1 4
-15 14 -20 40 -20 29 0 41 7 66 39 38 47 38 55 6 69 -37 17 -59 15 -89 -9z"/>
<path d="M6242 5961 l-104 -6 -34 -37 c-19 -21 -34 -42 -34 -48 0 -15 47 -12
80 5 17 9 40 12 58 9 18 -4 41 0 60 10 48 25 70 20 123 -31 69 -66 73 -76 49
-115 -33 -55 -22 -172 18 -186 17 -5 62 94 62 137 0 31 -50 210 -70 251 -8 17
-54 20 -208 11z"/>
<path d="M6497 5954 c-24 -24 24 -99 74 -117 21 -7 31 -56 19 -96 -5 -17 -23
-56 -40 -86 -59 -103 29 -56 108 58 57 83 63 112 32 161 -22 36 -46 51 -105
65 -22 5 -49 12 -60 16 -11 3 -24 3 -28 -1z"/>
<path d="M6815 5888 c-2 -7 -5 -60 -8 -118 -3 -86 -8 -117 -31 -173 -20 -49
-25 -72 -17 -80 16 -16 54 5 87 48 26 34 29 46 36 164 l7 126 -25 23 c-28 25
-43 28 -49 10z"/>
<path d="M4800 5811 c-118 -38 -144 -64 -110 -111 21 -29 26 -60 11 -60 -5 0
-15 15 -21 34 -19 60 -31 63 -115 27 -41 -17 -81 -31 -90 -31 -21 0 -19 -5 15
-56 47 -67 85 -79 158 -48 20 8 77 26 126 39 49 13 91 27 95 30 3 4 6 32 7 63
0 32 4 74 9 95 9 44 1 46 -85 18z"/>
<path d="M5155 5688 c-25 -20 -27 -25 -21 -74 3 -29 9 -61 12 -71 3 -11 -4 -7
-20 12 -22 25 -28 28 -36 15 -26 -40 -2 -175 38 -215 l25 -26 -22 -54 c-25
-60 -21 -79 26 -113 23 -17 26 -23 16 -33 -7 -7 -13 -28 -13 -47 0 -28 -8 -42
-45 -75 -37 -34 -45 -47 -45 -76 0 -20 4 -42 9 -50 22 -34 98 41 89 87 -2 9 6
25 18 37 12 12 23 40 27 69 4 27 12 55 17 62 14 16 -11 127 -46 200 -18 38
-23 59 -16 66 16 16 28 3 69 -69 20 -37 50 -81 66 -100 31 -35 185 -133 210
-133 8 0 21 10 29 21 12 19 17 20 37 10 18 -10 26 -10 39 2 9 8 34 20 55 27
54 17 69 35 61 76 -7 38 5 45 24 14 15 -25 62 -26 91 -2 12 10 25 36 30 62 8
45 8 45 19 18 6 -16 19 -28 27 -28 23 0 120 95 139 135 21 43 21 91 0 99 -35
14 -63 5 -85 -25 -16 -23 -27 -29 -44 -25 -24 6 -67 -17 -189 -102 -179 -124
-204 -134 -258 -103 -18 10 -55 27 -83 36 -62 23 -77 35 -42 35 15 0 27 2 27
4 0 3 -23 37 -50 77 -52 75 -80 148 -80 206 0 37 -29 73 -59 73 -10 0 -31 -10
-46 -22z"/>
<path d="M6296 5672 c-41 -30 -56 -35 -92 -33 -37 2 -49 -2 -74 -27 -32 -33
-40 -76 -17 -104 17 -23 106 -70 117 -63 14 9 12 36 -5 68 -14 27 -13 30 8 47
16 13 27 15 39 9 15 -8 18 -25 19 -107 1 -106 8 -143 27 -150 33 -11 55 129
27 178 -25 43 -20 53 25 45 50 -8 64 14 31 49 -13 14 -25 44 -29 72 -4 26 -12
48 -17 50 -6 1 -32 -14 -59 -34z"/>
<path d="M4074 5670 c-11 -4 -45 -30 -74 -57 -52 -48 -53 -50 -42 -83 7 -18
12 -56 12 -84 0 -28 12 -109 27 -181 25 -119 27 -150 27 -362 1 -128 3 -233 6
-233 29 1 67 85 86 189 20 112 18 459 -2 584 -17 98 -17 99 6 153 31 76 16 99
-46 74z"/>
<path d="M6911 5628 c-21 -70 -64 -140 -103 -168 -39 -28 -40 -40 -3 -40 24 0
52 27 114 111 42 57 49 85 31 120 -16 29 -26 23 -39 -23z"/>
<path d="M4338 5619 c-49 -22 -74 -61 -61 -97 9 -25 65 -82 80 -82 7 0 32 14
55 30 22 17 47 30 55 30 27 0 24 30 -8 77 -49 72 -51 73 -121 42z"/>
<path d="M4126 5542 c-6 -10 11 -88 26 -116 6 -11 15 -79 18 -151 6 -109 11
-139 32 -185 l26 -55 16 37 c15 35 15 43 0 103 -21 82 -14 118 36 192 22 32
40 63 40 70 0 6 -11 20 -25 31 -13 11 -30 31 -36 46 -14 31 -44 34 -59 6 -15
-27 -39 -25 -50 5 -10 26 -16 30 -24 17z"/>
<path d="M4605 5523 c-55 -19 -59 -26 -46 -66 15 -46 33 -51 81 -27 44 22 59
55 40 89 -12 24 -19 24 -75 4z"/>
<path d="M4714 5526 c-3 -8 -4 -27 -2 -43 4 -35 32 -49 125 -63 39 -5 78 -12
87 -16 14 -6 16 -2 10 21 -5 20 -4 26 5 21 23 -14 40 -65 50 -146 6 -46 12
-85 14 -87 11 -10 40 42 44 79 6 51 -26 144 -60 176 -13 12 -63 31 -121 46
-112 30 -144 32 -152 12z"/>
<path d="M3839 5497 c-62 -47 -174 -116 -234 -142 -28 -13 -57 -30 -64 -39
-13 -15 -8 -16 55 -11 38 3 116 2 174 -3 58 -4 116 -6 130 -2 25 6 25 8 25
116 0 102 -1 109 -20 112 -12 2 -41 -12 -66 -31z"/>
<path d="M4442 5457 c-64 -39 -72 -62 -44 -131 12 -28 25 -66 28 -84 10 -50
38 -39 44 18 3 25 16 61 29 79 29 41 41 128 20 142 -19 12 -17 12 -77 -24z"/>
<path d="M6392 5434 c1 -40 -6 -78 -21 -119 -22 -59 -22 -61 -5 -148 12 -65
22 -91 38 -102 33 -24 79 -18 119 14 20 15 57 34 81 41 57 16 68 29 64 76 -4
50 -27 64 -63 36 -19 -15 -35 -20 -56 -15 -36 7 -59 -11 -59 -46 l-1 -26 -29
33 c-34 36 -39 80 -15 122 29 52 14 131 -34 174 l-21 19 2 -59z"/>
<path d="M6937 5431 c-34 -51 -83 -88 -138 -104 -39 -11 -44 -16 -44 -42 0
-25 6 -32 35 -42 44 -15 155 -16 182 -2 18 9 19 17 13 69 -4 35 -3 60 3 64 11
7 -1 73 -16 88 -5 5 -19 -7 -35 -31z"/>
<path d="M3200 5382 c-19 -16 -21 -24 -15 -61 6 -37 14 -48 65 -84 63 -45 72
-57 40 -57 -33 0 -41 -32 -24 -91 9 -28 14 -63 11 -76 -5 -27 9 -29 67 -9 48
17 58 32 50 79 -6 37 -5 38 14 28 12 -6 35 -11 52 -11 25 0 31 4 28 18 -2 9
-14 18 -26 20 -16 2 -28 15 -37 36 -18 42 -30 51 -89 68 l-48 14 26 17 c33 22
33 35 -1 43 -55 12 -63 16 -58 25 4 5 14 9 24 9 10 0 24 6 30 13 8 11 5 16
-15 25 -36 17 -68 15 -94 -6z"/>
<path d="M4314 5294 c-10 -55 1 -146 24 -190 29 -57 100 -144 117 -144 22 0
18 30 -7 57 -17 18 -23 39 -26 89 -4 59 -7 66 -33 80 -32 16 -32 17 -29 92 2
46 0 52 -19 52 -15 0 -22 -9 -27 -36z"/>
<path d="M6242 5271 c-39 -53 -48 -98 -31 -146 17 -45 36 -63 74 -65 49 -3 51
-2 65 41 14 42 14 42 -17 68 -24 20 -29 30 -23 41 16 24 11 47 -14 76 l-23 28
-31 -43z"/>
<path d="M4916 5235 c-28 -47 -66 -179 -66 -231 0 -18 8 -38 19 -48 12 -11 19
-31 19 -54 1 -45 36 -130 57 -138 14 -6 89 37 108 61 4 5 4 38 1 73 -6 61 -5
65 24 95 42 45 52 69 52 126 0 44 -3 51 -20 51 -23 0 -80 -103 -80 -144 0 -28
-24 -40 -51 -26 -23 13 -22 8 -4 60 8 23 15 56 15 73 0 38 -30 147 -40 147 -5
0 -20 -20 -34 -45z"/>
<path d="M3415 5259 c-9 -14 85 -100 105 -97 8 2 16 13 18 26 2 12 8 22 13 22
6 0 9 -27 7 -66 -2 -54 0 -68 15 -78 28 -18 49 5 63 70 16 73 17 121 4 129 -6
3 -26 1 -45 -6 -27 -10 -38 -10 -47 -1 -15 15 -124 16 -133 1z"/>
<path d="M3750 5254 c0 -2 7 -29 15 -61 9 -36 15 -103 15 -180 l0 -123 30 -19
30 -18 -31 -59 c-49 -93 -59 -142 -59 -311 0 -83 -5 -164 -11 -180 l-10 -28
-19 25 c-17 22 -19 23 -26 7 -3 -10 3 -45 16 -79 16 -43 20 -72 16 -99 -8 -52
12 -52 47 -1 37 53 59 110 96 246 25 91 31 130 26 163 -6 40 -3 50 29 96 l36
52 2 285 3 285 -102 1 c-57 1 -103 0 -103 -2z"/>
<path d="M3676 5239 c-18 -56 -24 -244 -11 -366 9 -95 22 -108 66 -64 28 28
29 34 29 116 0 67 -5 95 -21 126 -11 23 -24 72 -28 110 -7 68 -25 108 -35 78z"/>
<path d="M6017 5213 c-4 -3 -7 -21 -7 -38 0 -18 -9 -58 -20 -90 -29 -85 -26
-149 12 -242 27 -65 32 -90 31 -153 -3 -213 -13 -260 -67 -333 -20 -27 -20
-29 -3 -39 15 -8 17 -17 12 -49 -8 -46 7 -51 47 -19 14 11 37 24 52 30 33 12
33 33 4 123 l-22 68 23 93 c12 52 36 122 52 156 34 73 35 90 9 149 -23 50 -25
60 -8 43 25 -25 41 -14 35 26 -28 173 -45 230 -77 262 -19 19 -60 27 -73 13z"/>
<path d="M6758 5214 c-13 -13 -9 -189 4 -202 16 -16 126 -15 158 1 41 20 70
74 70 127 0 31 -6 52 -15 60 -18 15 -205 27 -217 14z"/>
<path d="M2980 5140 c-117 -59 -148 -88 -134 -125 8 -21 22 -19 56 10 22 19
34 23 47 15 21 -11 37 -1 110 69 47 46 62 73 44 84 -5 3 -60 -21 -123 -53z"/>
<path d="M3180 5154 c-13 -34 -13 -42 6 -98 12 -33 21 -46 33 -44 23 5 28 111
6 144 -20 31 -33 30 -45 -2z"/>
<path d="M5935 5168 c-33 -18 -85 -70 -111 -111 -20 -30 -30 -37 -52 -35 -62
5 -132 -82 -132 -162 0 -38 2 -40 29 -40 46 0 81 37 95 100 l13 55 7 -37 c3
-20 13 -39 21 -42 8 -3 41 9 75 26 61 30 61 30 55 67 -4 27 0 48 20 86 27 53
33 105 13 105 -7 0 -22 -6 -33 -12z"/>
<path d="M4460 5101 c0 -58 30 -140 57 -158 24 -16 66 -15 223 5 51 7 55 9 61
39 3 17 16 50 28 73 11 22 21 47 21 55 0 20 -39 19 -68 -1 -12 -8 -50 -21 -85
-28 -57 -12 -62 -15 -62 -40 1 -35 -16 -28 -38 17 -13 26 -25 37 -40 37 -12 0
-37 9 -55 20 -18 11 -35 20 -37 20 -3 0 -5 -17 -5 -39z"/>
<path d="M3020 5043 c0 -10 15 -64 33 -120 31 -93 39 -108 103 -180 38 -43 75
-90 82 -105 9 -22 18 -28 43 -28 30 0 31 1 25 36 -7 34 -7 35 16 23 13 -6 32
-23 44 -37 19 -23 21 -23 37 -8 9 10 17 24 17 31 0 16 -54 59 -103 84 -22 11
-47 42 -82 100 -44 74 -50 81 -53 57 -2 -14 8 -52 22 -84 l26 -57 -44 49 c-47
52 -71 99 -81 160 -10 57 -85 128 -85 79z"/>
<path d="M3487 5043 c-4 -3 -7 -41 -7 -84 0 -77 0 -78 33 -98 18 -11 43 -38
56 -61 12 -22 27 -40 32 -40 20 0 30 58 27 148 -3 88 -5 95 -31 118 -27 23
-94 34 -110 17z"/>
<path d="M3405 4961 c-37 -76 -38 -81 -22 -104 9 -14 32 -30 52 -37 19 -6 35
-15 35 -19 0 -5 -20 -14 -44 -21 -25 -7 -52 -20 -61 -30 -15 -17 -13 -19 28
-35 56 -21 75 -13 112 50 32 56 28 75 -18 75 -18 0 -41 6 -51 13 -18 13 -18
15 3 62 21 47 29 125 13 125 -4 0 -25 -36 -47 -79z"/>
<path d="M6900 4985 c-27 -14 -62 -24 -87 -25 -45 0 -53 -9 -29 -30 14 -11 85
-8 153 5 17 4 43 47 43 71 0 11 -41 0 -80 -21z"/>
<path d="M2816 4912 c-3 -5 -21 -51 -39 -103 -19 -52 -43 -108 -52 -124 -24
-41 -14 -97 22 -125 36 -28 60 -25 98 13 41 41 53 94 35 157 -22 74 -24 118
-7 144 15 22 14 24 -9 35 -30 13 -41 14 -48 3z"/>
<path d="M5568 4897 c-43 -27 -110 -74 -146 -104 l-27 -22 39 -1 c25 0 43 -6
51 -17 12 -17 16 -16 53 5 22 12 47 22 55 22 8 0 18 7 21 16 9 23 7 112 -2
118 -4 2 -24 -5 -44 -17z"/>
<path d="M6947 4900 c-12 -14 -29 -20 -58 -20 -63 0 -79 -13 -79 -66 0 -120
74 -169 163 -107 l38 27 -6 75 c-10 118 -21 134 -58 91z"/>
<path d="M4720 4848 l-105 -53 -130 -5 c-110 -4 -130 -8 -133 -21 -2 -13 16
-23 75 -43 115 -40 198 -52 242 -36 20 8 59 14 86 15 38 1 63 9 102 34 l51 33
-29 61 c-16 34 -34 63 -41 65 -7 1 -60 -21 -118 -50z"/>
<path d="M3027 4834 c-3 -3 -2 -17 4 -31 16 -44 11 -71 -18 -90 -43 -26 -83
-65 -77 -75 10 -15 55 -8 84 14 25 18 33 20 55 10 14 -6 25 -16 25 -22 0 -5 9
-10 20 -10 26 0 25 8 -10 87 -16 36 -30 74 -30 84 0 23 -39 47 -53 33z"/>
<path d="M7695 4780 c-17 -19 -17 -22 0 -77 26 -82 24 -138 -9 -201 l-27 -52
25 -25 c44 -44 111 -25 137 38 8 18 14 67 14 112 0 85 -22 148 -72 201 -27 29
-44 30 -68 4z"/>
<path d="M4178 4712 c-17 -35 -34 -52 -65 -67 -40 -19 -42 -22 -29 -41 21 -29
120 -104 138 -104 9 0 21 -7 28 -15 20 -24 39 -18 38 13 -1 15 5 52 12 80 21
89 5 129 -67 166 l-31 16 -24 -48z"/>
<path d="M3690 4739 c-14 -6 -40 -8 -58 -4 -40 7 -50 -11 -28 -54 19 -36 20
-74 4 -100 -9 -14 -8 -23 5 -42 23 -32 21 -60 -9 -146 -19 -58 -27 -108 -35
-226 -12 -189 -13 -192 -28 -137 -8 27 -11 66 -7 96 5 41 3 53 -9 58 -10 4
-19 -2 -24 -17 -33 -85 -42 -100 -53 -89 -7 7 -15 12 -20 12 -13 0 -58 -86
-58 -111 0 -18 -3 -20 -9 -10 -7 11 -21 5 -67 -28 -60 -43 -97 -51 -149 -31
-31 12 -55 2 -79 -34 -15 -24 -15 -28 1 -60 11 -23 24 -36 37 -36 12 0 44 -3
72 -6 65 -7 91 6 99 50 4 19 20 47 36 62 36 34 39 13 4 -28 -30 -36 -32 -54
-6 -68 29 -15 56 -12 82 9 20 16 24 31 30 111 9 133 29 142 29 13 0 -100 0
-101 23 -96 33 9 57 33 57 60 0 19 11 28 61 50 41 18 65 35 75 54 18 36 18
140 -1 244 -15 89 -11 125 25 193 21 40 22 52 16 138 -6 82 -4 101 13 140 21
47 17 51 -29 33z"/>
<path d="M5346 4694 c-26 -30 -46 -58 -43 -61 13 -12 61 10 100 46 36 34 39
41 28 55 -21 25 -33 20 -85 -40z"/>
<path d="M5265 4719 c-22 -12 -59 -35 -82 -51 -36 -24 -43 -34 -43 -62 0 -48
22 -64 54 -39 43 34 138 152 131 163 -9 14 -15 13 -60 -11z"/>
<path d="M6162 4698 c-36 -58 -62 -147 -62 -209 0 -57 15 -109 31 -109 5 0 20
21 33 48 14 26 34 61 45 77 27 39 26 75 -2 160 l-23 68 -22 -35z"/>
<path d="M6977 4679 c-23 -12 -52 -19 -74 -17 -47 4 -57 -23 -18 -48 24 -16
34 -16 83 -6 31 7 64 20 74 30 16 16 17 19 2 40 -18 26 -19 26 -67 1z"/>
<path d="M4347 4653 c-4 -3 -7 -25 -7 -47 0 -23 -7 -70 -15 -105 -18 -75 -14
-94 17 -89 19 2 28 18 50 83 30 88 29 126 -5 150 -24 17 -31 18 -40 8z"/>
<path d="M5087 4623 c-4 -6 -44 -21 -89 -33 -46 -12 -105 -34 -131 -48 -39
-20 -69 -26 -147 -31 -54 -3 -102 -10 -106 -14 -15 -15 -17 -136 -3 -153 20
-24 125 -13 190 18 27 14 52 21 55 16 9 -14 64 1 124 35 30 18 68 38 84 47 47
24 70 62 62 102 -7 41 -30 76 -39 61z"/>
<path d="M6995 4588 c-38 -11 -71 -21 -73 -23 -2 -2 13 -28 33 -59 46 -72 88
-95 142 -78 20 6 39 10 41 8 2 -2 -8 -16 -22 -31 -15 -16 -26 -31 -26 -36 0
-7 94 -69 105 -69 2 0 10 18 16 39 7 22 19 43 27 46 22 8 27 -2 13 -29 -22
-41 -11 -69 34 -85 53 -18 171 -25 215 -14 45 12 50 37 13 75 -37 39 -67 54
-128 62 -69 10 -113 25 -157 53 -30 21 -40 23 -58 13 -26 -14 -23 -17 -38 45
-13 50 -40 97 -58 101 -5 1 -40 -7 -79 -18z"/>
<path d="M2904 4568 c-17 -6 -44 -20 -60 -33 -29 -23 -29 -23 -10 -44 11 -12
51 -37 89 -56 54 -27 73 -32 88 -24 10 5 19 16 19 23 0 15 65 76 80 76 25 0 5
21 -42 44 -55 27 -108 32 -164 14z"/>
<path d="M4420 4524 c-15 -39 -12 -54 18 -89 15 -17 35 -46 44 -64 24 -44 45
-49 75 -19 31 31 43 108 22 135 -15 18 -111 63 -135 63 -8 0 -19 -12 -24 -26z"/>
<path d="M7548 4408 c-27 -11 -48 -25 -48 -30 0 -5 19 -27 43 -48 32 -31 50
-40 78 -40 44 0 59 15 59 57 0 24 -8 41 -26 58 -32 30 -45 30 -106 3z"/>
<path d="M5846 4283 c-54 -27 -76 -33 -102 -28 -19 3 -42 1 -53 -4 -35 -19
-61 -121 -31 -121 5 0 26 10 46 22 30 18 58 23 132 26 58 3 95 9 98 16 2 6 -1
37 -8 68 l-13 56 -69 -35z"/>
</g>
</svg>
