<svg version="1.1" id="Layer_1" xmlns="http://www.w3.org/2000/svg" xmlns:xlink="http://www.w3.org/1999/xlink" x="0px" y="0px"
	 width="100%" viewBox="0 0 272 224" enable-background="new 0 0 272 224" xml:space="preserve">
<path fill="#000000" opacity="1.000000" stroke="none" 
	d="
M106.778503,147.987488 
	C97.402565,148.307220 97.385529,147.949738 97.231285,138.490112 
	C97.093262,130.025909 96.233894,121.568550 95.552338,113.119499 
	C94.857574,104.506813 94.067268,95.899971 93.164200,87.306824 
	C92.788292,83.729904 94.164459,82.118477 97.701508,81.652550 
	C106.998924,80.427811 116.241371,81.299446 125.525917,81.454315 
	C130.743637,81.541359 136.104553,81.467651 141.391174,81.716782 
	C145.541229,81.912346 149.783051,81.990845 153.787415,82.946007 
	C158.010361,83.953308 161.503235,83.072891 165.278458,81.336357 
	C182.411957,73.455299 205.559479,84.057175 211.118774,102.075294 
	C215.827347,117.336121 207.072952,142.042389 181.535812,143.244720 
	C177.041779,143.456299 172.394897,143.953018 168.177979,142.226013 
	C163.810089,140.437164 160.111923,140.995834 156.612518,143.808609 
	C153.459152,146.343277 150.760040,146.361649 148.065552,143.066498 
	C146.600525,141.274857 144.585312,140.076706 142.196579,139.734390 
	C139.883591,147.396317 139.883331,147.286804 131.667847,147.305771 
	C123.520164,147.324570 115.349388,146.716721 106.778503,147.987488 
M100.355621,121.188637 
	C100.691704,125.992378 100.955811,130.802689 101.393791,135.597122 
	C101.617409,138.044861 101.566528,141.306564 104.137589,142.104828 
	C107.953857,143.289658 112.273666,142.632416 115.771957,140.973724 
	C119.099678,139.395935 117.543167,135.722702 117.007622,132.856689 
	C116.168633,128.366821 117.237000,125.143066 121.951309,123.393959 
	C125.193954,122.190872 128.436859,120.634453 131.214935,118.601051 
	C138.885483,112.986633 139.197296,104.763916 137.702179,96.512169 
	C136.540314,90.099709 130.725006,88.330109 125.362602,87.260300 
	C118.400574,85.871376 111.325569,85.373734 104.124741,86.123955 
	C99.718170,86.583054 98.473930,88.146027 98.809914,92.401779 
	C99.541298,101.666023 99.849564,110.963661 100.355621,121.188637 
M206.911301,117.255173 
	C209.904999,105.012726 204.970245,94.653374 192.875290,87.789810 
	C183.416031,82.421936 173.122345,82.197754 167.393356,87.710258 
	C173.732086,91.088913 175.855759,97.190163 177.651703,104.030754 
	C181.283203,101.542435 183.285156,102.993668 184.410889,106.545715 
	C184.868301,107.988998 186.224670,108.341911 187.541245,108.711021 
	C189.030991,109.128677 190.515656,109.784851 190.490311,111.613480 
	C190.464676,113.461967 189.041122,114.065315 187.437881,114.297798 
	C186.060303,114.497559 184.768417,114.858635 184.469803,116.472954 
	C184.068832,118.640587 184.759232,121.819275 181.374710,121.725494 
	C178.119919,121.635330 179.083481,118.228630 178.212448,116.264038 
	C178.090302,115.988518 177.753922,115.807999 176.984894,115.080269 
	C172.910385,118.693527 170.768600,123.988525 166.305847,127.103821 
	C167.720200,129.693787 170.158401,131.220047 169.675735,133.759155 
	C169.095978,136.809113 170.650070,137.507538 173.104065,137.945053 
	C183.950089,139.878815 202.067810,135.532928 206.911301,117.255173 
M156.957718,107.568481 
	C156.816483,110.940323 152.391830,110.210869 151.598557,113.539291 
	C150.726273,117.199249 148.317978,116.615936 146.347366,113.846085 
	C145.705078,112.943314 145.945511,111.447342 144.479614,111.080177 
	C142.629852,111.267815 142.135025,112.825844 141.657471,114.181686 
	C140.196945,118.328308 137.148804,121.128311 133.756180,123.569191 
	C131.063385,125.506554 128.227676,127.277657 125.319824,128.875870 
	C121.248108,131.113785 122.059959,134.844849 122.641953,138.132324 
	C123.303154,141.867294 126.753792,140.665726 129.237549,140.771820 
	C132.245575,140.900299 135.393173,141.209900 135.743423,136.699478 
	C136.019302,133.146713 138.809082,132.655487 141.626144,132.924042 
	C144.315201,133.180374 146.660461,134.508347 148.907761,135.992111 
	C154.379318,139.604645 157.357513,138.863190 161.375885,132.909256 
	C161.148026,132.523041 160.980148,132.023499 160.643280,131.699783 
	C155.590424,126.843987 155.692764,125.835220 161.642914,122.416695 
	C162.219467,122.085442 162.827087,121.803085 163.381088,121.438461 
	C174.892761,113.861778 174.204895,97.777740 162.143723,91.341988 
	C155.213837,87.644272 147.702057,87.288193 139.331818,86.816872 
	C143.382126,91.790901 143.182144,97.470398 144.773224,102.667435 
	C146.648422,101.876404 148.157852,98.513992 149.812073,100.836014 
	C151.748154,103.553688 155.105209,104.152939 156.957718,107.568481 
z"/>
<path fill="#000000" opacity="1.000000" stroke="none" 
	d="
M83.736580,149.294861 
	C83.390732,129.600266 82.208374,110.386192 79.957695,91.232864 
	C79.665558,88.746773 77.964096,84.371338 81.540024,83.978256 
	C85.558128,83.536568 84.857605,88.366295 85.062340,90.959137 
	C85.782234,100.076271 85.678970,109.260162 86.452583,118.370789 
	C87.199867,127.171425 87.175926,135.967987 87.423653,144.771194 
	C87.573250,150.087097 89.075081,150.376190 94.298943,150.566849 
	C105.208771,150.965042 116.102798,151.140488 126.992104,150.584961 
	C147.732254,149.526871 168.457840,148.181030 189.199219,147.150909 
	C194.613647,146.882019 200.299637,145.569473 205.619766,148.776367 
	C204.073898,151.766693 201.698990,151.184418 199.685364,151.212677 
	C191.695541,151.324814 183.698135,151.124863 175.714081,151.375687 
	C149.467377,152.200241 123.274384,153.977448 97.105118,156.120270 
	C95.778618,156.228882 94.443954,156.341751 93.116257,156.311920 
	C89.428032,156.229050 88.048904,157.678436 88.740318,161.543579 
	C89.217278,164.209824 90.920822,168.875778 87.282997,169.165573 
	C82.975044,169.508743 84.909065,164.613251 84.772217,162.026031 
	C84.591286,158.605423 83.351013,157.209473 79.940742,157.338074 
	C77.672729,157.423630 75.312935,157.734528 72.931854,156.765701 
	C73.206711,153.343262 76.020035,153.600601 78.028755,152.944168 
	C80.158035,152.248337 82.837296,152.627655 83.736580,149.294861 
z"/>
<path fill="#000000" opacity="1.000000" stroke="none" 
	d="
M85.951859,68.429321 
	C87.960793,68.585579 89.761734,68.573860 90.111298,70.767197 
	C90.436333,72.806541 89.159630,73.792946 87.410385,74.295250 
	C85.398300,74.873024 84.429863,76.172844 84.329697,78.257927 
	C84.253799,79.837990 83.785789,81.285530 81.841850,81.347321 
	C80.289146,81.396690 79.229454,80.336990 79.038864,79.011024 
	C78.679466,76.510544 77.168137,75.651688 75.048004,74.645081 
	C72.109360,73.249855 71.317459,71.147148 75.247536,69.618675 
	C75.703125,69.441490 76.423286,69.301414 76.534790,68.977058 
	C79.106033,61.497604 82.329361,64.580589 85.951859,68.429321 
z"/>
<path fill="#000000" opacity="1.000000" stroke="none" 
	d="
M215.279480,150.732086 
	C214.115845,149.263870 212.580627,149.671295 211.452026,149.098740 
	C209.234299,147.973709 209.228760,146.402725 211.128220,144.912598 
	C211.753098,144.422379 213.036087,144.473022 213.335999,143.911804 
	C217.111801,136.846512 220.807938,140.927338 224.523209,143.906036 
	C225.022873,144.306641 225.804672,144.695663 225.905884,145.200333 
	C226.934494,150.329620 220.747238,149.976685 219.245880,153.685898 
	C218.518250,155.483551 215.992142,153.247650 215.279480,150.732086 
z"/>
<path fill="#000000" opacity="1.000000" stroke="none" 
	d="
M113.835297,111.159012 
	C110.664009,107.488441 111.497910,102.184044 115.720551,100.752861 
	C119.300095,99.539650 121.339966,103.528809 122.384659,105.451210 
	C124.288162,108.954010 119.669113,110.835747 117.922127,113.309738 
	C116.327187,115.568367 114.949883,113.032143 113.835297,111.159012 
z"/>
</svg>