<?xml version="1.0" standalone="no"?>
<!DOCTYPE svg PUBLIC "-//W3C//DTD SVG 20010904//EN"
 "http://www.w3.org/TR/2001/REC-SVG-20010904/DTD/svg10.dtd">
<svg version="1.0" xmlns="http://www.w3.org/2000/svg"
 width="250.000000pt" height="295.000000pt" viewBox="0 0 250.000000 295.000000"
 preserveAspectRatio="xMidYMid meet">

<g transform="translate(0.000000,295.000000) scale(0.100000,-0.100000)"
fill="#ffffff" stroke="none">
<path d="M1400 2258 c-48 -25 -90 -89 -90 -138 l0 -26 -97 4 c-82 3 -107 0
-153 -17 -30 -12 -58 -21 -61 -21 -4 0 -10 17 -14 38 -28 155 -221 195 -299
62 -29 -49 -28 -144 2 -192 24 -39 74 -68 116 -68 14 0 26 -1 26 -2 0 -2 -9
-25 -19 -53 -52 -137 -29 -291 60 -393 34 -39 35 -44 10 -66 -18 -16 -17 -18
13 -76 32 -62 44 -68 62 -32 6 12 13 19 17 16 3 -3 19 3 35 15 47 33 87 24 45
-10 -26 -22 -62 -110 -69 -169 l-6 -55 -73 0 c-70 0 -76 -2 -108 -33 -64 -62
-72 -160 -23 -267 55 -121 185 -185 282 -139 40 19 72 60 86 110 7 27 13 34
26 29 72 -27 145 -24 224 9 12 6 21 0 32 -22 72 -139 252 -110 331 53 88 180
-17 374 -176 326 -43 -13 -59 -9 -59 16 0 28 -63 133 -98 164 -19 17 -33 31
-31 33 2 1 19 13 37 25 l32 22 0 -24 c0 -27 44 -55 56 -36 4 6 11 1 18 -13 20
-39 41 -33 75 22 17 28 31 55 31 60 0 14 -39 32 -56 26 -8 -3 -14 1 -14 9 0
21 -19 28 -35 15 -22 -18 -18 -5 9 38 66 100 72 250 17 369 -17 36 -31 67 -31
68 0 2 15 12 33 23 49 28 70 80 65 158 -8 131 -117 199 -228 142z m147 -18
c49 -30 66 -71 61 -153 -3 -63 -7 -72 -36 -98 -36 -32 -63 -37 -82 -14 -28 33
-30 12 -2 -22 50 -64 96 -168 56 -129 -9 10 -33 16 -58 16 -33 0 -48 -6 -69
-28 -15 -15 -27 -38 -27 -50 0 -21 0 -21 -36 3 -20 14 -41 25 -45 25 -5 0 -9
6 -9 14 0 9 8 13 23 9 21 -4 21 -4 4 10 -14 12 -17 23 -12 51 5 24 3 36 -4 36
-6 0 -11 -9 -11 -19 0 -11 -4 -23 -10 -26 -5 -3 -10 1 -10 9 0 9 -4 16 -10 16
-13 0 -13 -23 1 -37 18 -18 -11 -53 -46 -53 -16 0 -43 -9 -59 -19 l-30 -20
-23 25 c-13 14 -23 29 -23 35 0 5 -5 9 -11 9 -6 0 -8 -7 -5 -16 4 -12 2 -15
-9 -10 -8 3 -22 9 -30 12 -27 11 -16 -11 15 -29 19 -11 30 -27 30 -40 1 -20 2
-21 14 -5 26 34 24 5 -2 -42 l-27 -49 -27 26 c-70 67 -185 -1 -161 -96 17 -71
109 -98 162 -47 l28 26 10 -23 c12 -25 6 -41 -14 -43 -63 -5 -66 -12 -43 -79
11 -32 18 -60 16 -62 -2 -2 -12 20 -21 49 -10 29 -21 56 -24 61 -4 4 -20 -4
-34 -17 l-27 -25 -30 25 c-16 14 -43 53 -60 88 -56 114 -50 249 17 364 27 47
24 68 -4 34 -16 -18 -24 -20 -61 -13 -168 33 -137 306 34 303 73 -1 131 -54
141 -131 4 -31 1 -46 -12 -61 -24 -27 -15 -25 52 10 72 37 151 53 225 45 44
-5 59 -11 63 -26 4 -11 11 -17 16 -13 5 3 7 10 4 15 -8 12 2 11 26 -1 13 -8
19 -7 19 0 0 6 -7 13 -15 16 -22 9 -19 72 5 112 42 68 132 92 197 52z m-231
-476 c19 -9 47 -32 64 -50 24 -28 30 -44 30 -82 0 -59 -18 -94 -50 -102 -14
-3 -29 -16 -35 -28 -14 -32 -25 -27 -25 12 0 25 5 36 19 41 20 6 59 45 45 45
-5 0 -22 -9 -39 -20 -44 -29 -52 -25 -59 30 -5 38 -3 56 9 72 19 28 19 43 0
62 -19 19 -72 11 -99 -15 -18 -17 -18 -19 -2 -43 9 -14 27 -28 40 -32 24 -6
36 -29 36 -72 0 -19 -5 -23 -27 -22 -44 3 -48 1 -27 -15 18 -14 18 -14 -8 -15
-21 0 -28 -5 -28 -21 0 -11 -5 -17 -10 -14 -6 4 -8 11 -5 16 4 5 -3 9 -15 9
-28 0 -53 59 -45 104 23 121 132 187 231 140z m255 -159 c-15 -65 -47 -119
-66 -111 -8 3 -22 9 -30 12 -11 4 -15 -1 -15 -17 -1 -23 -1 -23 -12 -4 -6 11
-17 25 -25 32 -13 10 -12 17 2 59 9 26 13 54 10 62 -4 12 1 13 25 8 38 -7 97
16 108 41 13 33 15 -27 3 -82z m-407 -157 c3 -13 6 -32 6 -43 -1 -18 -2 -17
-15 5 -16 28 -19 60 -6 60 5 0 11 -10 15 -22z m189 -68 c20 -17 20 -17 -13
-28 -41 -15 -70 -15 -70 -2 0 6 -9 10 -20 10 -11 0 -20 -7 -20 -15 0 -12 -14
-15 -62 -15 -35 0 -69 4 -77 9 -19 12 88 43 159 45 l55 1 -2 35 -1 35 15 -30
c9 -16 25 -36 36 -45z m64 -82 c41 -42 93 -137 93 -170 0 -9 -5 -20 -11 -23
-6 -4 -24 -25 -40 -47 l-29 -41 0 111 c0 63 -4 113 -10 117 -6 4 -10 -5 -10
-21 0 -26 -13 -26 -16 -1 0 7 -2 21 -2 31 -3 35 -16 6 -19 -40 -2 -41 0 -46
17 -41 19 5 20 0 20 -66 0 -82 -17 -158 -30 -137 -5 8 -4 22 2 33 5 10 7 21 4
24 -8 9 -26 -7 -26 -25 0 -9 -7 -26 -15 -36 -13 -18 -16 -18 -40 -2 -31 20
-32 53 -6 157 29 117 32 141 19 137 -13 -5 -46 -136 -54 -218 -7 -67 12 -98
68 -107 34 -5 40 -2 80 40 24 25 57 63 75 84 89 111 225 95 273 -33 9 -23 7
-22 -24 10 -36 39 -69 46 -123 25 -58 -22 -120 -106 -138 -187 -11 -52 3 -118
33 -154 l27 -32 -35 20 c-39 22 -80 92 -80 136 0 15 -4 28 -10 28 -5 0 -10
-13 -10 -30 0 -22 -7 -33 -28 -44 -43 -22 -112 -28 -167 -14 -43 11 -50 17
-53 41 -5 44 -22 31 -22 -17 0 -56 -14 -93 -48 -128 -34 -36 -46 -36 -27 2 49
95 -23 257 -137 304 -54 23 -92 20 -127 -10 l-31 -26 11 28 c24 64 89 102 152
89 50 -11 87 -33 152 -91 70 -63 109 -71 150 -29 34 33 32 72 -9 158 -19 40
-42 89 -50 110 -8 20 -20 37 -25 37 -12 0 14 -71 59 -160 35 -69 38 -110 10
-135 -20 -18 -21 -18 -34 1 -12 15 -17 17 -27 7 -7 -7 -16 -13 -19 -13 -16 0
-59 132 -60 181 0 10 7 16 18 15 12 -1 16 5 14 19 -9 57 -15 75 -24 75 -6 0
-8 -12 -5 -30 4 -16 2 -32 -3 -35 -6 -3 -10 3 -10 14 0 12 -5 21 -11 21 -12 0
-4 -86 16 -162 l12 -47 -40 31 c-39 31 -39 32 -34 88 5 63 39 150 68 176 15
13 37 17 111 16 54 -1 110 5 133 12 58 20 57 20 102 -26z m268 -258 c-3 -6 5
-10 18 -10 20 0 28 -9 41 -40 9 -22 16 -53 16 -69 0 -44 -26 -119 -55 -156
-43 -57 -118 -85 -132 -49 -4 10 -13 14 -28 10 -19 -5 -26 1 -39 28 -53 112
42 295 152 296 20 0 31 -4 27 -10z m-831 -74 c-7 -17 12 -30 33 -22 12 5 13 9
3 21 -20 24 2 18 53 -15 53 -33 92 -90 106 -151 13 -58 4 -98 -25 -110 -13 -4
-24 -15 -24 -24 0 -27 -47 -29 -98 -3 -97 50 -162 181 -129 261 13 29 21 37
42 37 15 0 24 4 20 10 -3 6 1 10 9 10 9 0 13 -6 10 -14z"/>
<path d="M1410 2150 c-44 -41 -39 -77 15 -107 22 -13 50 -23 62 -23 51 0 73
98 30 138 -32 30 -69 28 -107 -8z m108 -22 c11 -23 11 -33 0 -55 -17 -35 -41
-40 -84 -17 -33 18 -44 34 -24 34 6 0 10 7 10 16 0 9 -5 12 -12 8 -7 -4 -2 5
12 20 33 36 79 33 98 -6z"/>
<path d="M1448 2143 c-10 -2 -18 -9 -18 -14 0 -12 6 -11 31 4 17 10 23 10 26
0 3 -7 9 -13 15 -13 6 0 6 6 -2 15 -13 15 -21 16 -52 8z"/>
<path d="M1495 2101 c-3 -5 -1 -12 5 -16 5 -3 10 1 10 9 0 18 -6 21 -15 7z"/>
<path d="M1485 2060 c-3 -5 -1 -10 4 -10 6 0 11 5 11 10 0 6 -2 10 -4 10 -3 0
-8 -4 -11 -10z"/>
<path d="M790 2100 c-28 -28 -25 -72 6 -109 33 -40 58 -39 101 4 42 42 41 71
-6 102 -42 28 -75 29 -101 3z m64 -15 c-4 -10 0 -15 11 -15 9 0 13 5 9 11 -4
8 0 8 15 0 25 -14 28 -23 5 -14 -14 5 -14 3 -3 -15 12 -20 11 -25 -14 -49 -26
-26 -29 -27 -38 -10 -6 9 -15 17 -21 17 -6 0 -7 -5 -2 -13 5 -7 1 -4 -8 6 -21
22 -24 67 -6 85 18 18 59 16 52 -3z"/>
<path d="M806 2074 c-6 -15 -4 -15 11 -3 10 7 20 15 22 16 2 2 -3 3 -11 3 -9
0 -19 -7 -22 -16z"/>
<path d="M800 2036 c0 -9 5 -16 10 -16 6 0 10 4 10 9 0 6 -4 13 -10 16 -5 3
-10 -1 -10 -9z"/>
<path d="M1294 1985 c-9 -27 -8 -39 2 -53 20 -28 36 -3 28 46 -4 23 -9 42 -13
42 -3 0 -11 -16 -17 -35z"/>
<path d="M910 1943 c0 -14 19 -38 25 -32 8 8 -5 39 -16 39 -5 0 -9 -3 -9 -7z"/>
<path d="M950 1882 c0 -14 52 -63 63 -59 21 7 13 30 -18 48 -34 20 -45 23 -45
11z"/>
<path d="M1380 1136 c0 -14 5 -26 10 -26 6 0 10 9 10 19 0 11 -4 23 -10 26 -6
4 -10 -5 -10 -19z"/>
<path d="M1087 1111 c3 -12 10 -21 15 -21 13 0 6 32 -9 37 -7 3 -9 -3 -6 -16z"/>
<path d="M1363 1074 c-6 -16 15 -37 29 -28 4 3 8 14 8 25 0 23 -28 26 -37 3z"/>
<path d="M1102 1048 c2 -12 10 -23 18 -23 22 0 19 39 -3 43 -15 3 -18 -1 -15
-20z"/>
<path d="M1120 1003 c0 -5 4 -15 10 -23 11 -18 25 -7 17 15 -6 15 -27 21 -27
8z"/>
<path d="M1609 1010 c-19 -16 -29 -30 -23 -30 6 0 17 6 24 14 6 8 17 13 23 11
17 -7 41 11 33 24 -11 17 -20 14 -57 -19z"/>
<path d="M1543 954 c-9 -23 11 -38 26 -20 13 16 7 36 -10 36 -5 0 -12 -7 -16
-16z"/>
<path d="M1527 906 c-4 -10 -5 -21 -2 -24 9 -9 17 6 13 25 -3 17 -4 17 -11 -1z"/>
<path d="M1512 838 c2 -13 8 -23 13 -23 6 0 11 10 13 23 2 15 -2 22 -13 22
-11 0 -15 -7 -13 -22z"/>
<path d="M1520 781 c0 -11 5 -23 10 -26 6 -3 10 3 10 14 0 11 -4 23 -10 26 -5
3 -10 -3 -10 -14z"/>
<path d="M920 935 c7 -9 15 -13 17 -11 7 7 -7 26 -19 26 -6 0 -6 -6 2 -15z"/>
<path d="M955 911 c-8 -15 3 -31 21 -31 9 0 14 7 12 17 -4 20 -24 28 -33 14z"/>
<path d="M996 856 c3 -9 11 -16 16 -16 13 0 5 23 -10 28 -7 2 -10 -2 -6 -12z"/>
<path d="M1010 800 c0 -11 7 -20 15 -20 8 0 15 9 15 20 0 11 -7 20 -15 20 -8
0 -15 -9 -15 -20z"/>
<path d="M1020 740 c0 -11 5 -20 10 -20 6 0 10 9 10 20 0 11 -4 20 -10 20 -5
0 -10 -9 -10 -20z"/>
<path d="M1630 1353 c-28 -63 -29 -83 -6 -97 10 -6 33 -26 51 -45 l32 -35 36
54 37 54 -22 23 c-11 12 -25 20 -29 17 -5 -3 -9 1 -9 9 0 13 -50 67 -63 67 -3
0 -16 -21 -27 -47z"/>
<path d="M822 1337 c-12 -13 -22 -26 -22 -29 0 -3 -13 -20 -30 -38 -16 -18
-30 -38 -30 -44 0 -7 16 -27 35 -46 31 -30 37 -32 59 -22 59 27 75 99 36 165
-12 20 -23 37 -24 37 -1 0 -12 -10 -24 -23z"/>
<path d="M1775 1249 c-4 -6 2 -21 14 -33 26 -28 27 -40 1 -33 -28 7 -63 -38
-50 -64 15 -26 26 -31 40 -14 7 8 26 15 42 15 49 0 50 52 2 109 -27 33 -39 38
-49 20z"/>
<path d="M713 1185 c-30 -21 -57 -93 -42 -112 10 -12 15 -9 28 19 l15 33 3
-26 c2 -15 15 -37 28 -49 l23 -22 18 26 c16 26 16 28 -3 49 -11 12 -20 33 -21
46 0 13 -7 30 -14 38 -11 11 -17 10 -35 -2z"/>
</g>
</svg>
